<?xml version="1.0" encoding="UTF-8"?>
<svg version="1.1" xmlns="http://www.w3.org/2000/svg" width="500" height="812">
<path d="M0 0 C41.25 0 82.5 0 125 0 C125 10.56 125 21.12 125 32 C145.46 32 165.92 32 187 32 C187 42.23 187 52.46 187 63 C197.56 63 208.12 63 219 63 C219 73.23 219 83.46 219 94 C229.23 94 239.46 94 250 94 C250 104.23 250 114.46 250 125 C260.23 125 270.46 125 281 125 C281 145.79 281 166.58 281 188 C291.23 188 301.46 188 312 188 C312 229.25 312 270.5 312 313 C301.77 313 291.54 313 281 313 C281 333.46 281 353.92 281 375 C270.77 375 260.54 375 250 375 C250 385.23 250 395.46 250 406 C239.77 406 229.54 406 219 406 C219 416.56 219 427.12 219 438 C208.44 438 197.88 438 187 438 C187 448.23 187 458.46 187 469 C176.77 469 166.54 469 156 469 C156 479.23 156 489.46 156 500 C197.25 500 238.5 500 281 500 C281 510.23 281 520.46 281 531 C291.23 531 301.46 531 312 531 C312 551.79 312 572.58 312 594 C301.77 594 291.54 594 281 594 C281 604.23 281 614.46 281 625 C270.77 625 260.54 625 250 625 C250 635.23 250 645.46 250 656 C239.77 656 229.54 656 219 656 C219 666.56 219 677.12 219 688 C208.44 688 197.88 688 187 688 C187 698.23 187 708.46 187 719 C176.77 719 166.54 719 156 719 C156 729.23 156 739.46 156 750 C145.77 750 135.54 750 125 750 C125 760.23 125 770.46 125 781 C114.77 781 104.54 781 94 781 C94 791.23 94 801.46 94 812 C73.21 812 52.42 812 31 812 C31 801.77 31 791.54 31 781 C20.77 781 10.54 781 0 781 C0 770.77 0 760.54 0 750 C-10.23 750 -20.46 750 -31 750 C-31 739.77 -31 729.54 -31 719 C-41.56 719 -52.12 719 -63 719 C-63 708.77 -63 698.54 -63 688 C-73.23 688 -83.46 688 -94 688 C-94 677.44 -94 666.88 -94 656 C-104.23 656 -114.46 656 -125 656 C-125 645.77 -125 635.54 -125 625 C-135.23 625 -145.46 625 -156 625 C-156 614.77 -156 604.54 -156 594 C-166.56 594 -177.12 594 -188 594 C-188 573.21 -188 552.42 -188 531 C-177.44 531 -166.88 531 -156 531 C-156 520.77 -156 510.54 -156 500 C-114.75 500 -73.5 500 -31 500 C-31 489.77 -31 479.54 -31 469 C-41.56 469 -52.12 469 -63 469 C-63 458.77 -63 448.54 -63 438 C-73.23 438 -83.46 438 -94 438 C-94 427.44 -94 416.88 -94 406 C-104.23 406 -114.46 406 -125 406 C-125 395.77 -125 385.54 -125 375 C-135.23 375 -145.46 375 -156 375 C-156 354.54 -156 334.08 -156 313 C-166.56 313 -177.12 313 -188 313 C-188 271.75 -188 230.5 -188 188 C-177.44 188 -166.88 188 -156 188 C-156 167.21 -156 146.42 -156 125 C-145.77 125 -135.54 125 -125 125 C-125 114.77 -125 104.54 -125 94 C-114.77 94 -104.54 94 -94 94 C-94 83.77 -94 73.54 -94 63 C-83.77 63 -73.54 63 -63 63 C-63 52.77 -63 42.54 -63 32 C-42.21 32 -21.42 32 0 32 C0 21.44 0 10.88 0 0 Z " fill="#F02A2A" transform="translate(188,0)"/>
<path d="M0 0 C31.02 0 62.04 0 94 0 C94 10.56 94 21.12 94 32 C83.44 32 72.88 32 62 32 C62 42.23 62 52.46 62 63 C51.77 63 41.54 63 31 63 C31 73.23 31 83.46 31 94 C72.25 94 113.5 94 156 94 C156 104.23 156 114.46 156 125 C166.23 125 176.46 125 187 125 C187 145.79 187 166.58 187 188 C176.77 188 166.54 188 156 188 C156 198.23 156 208.46 156 219 C145.77 219 135.54 219 125 219 C125 187.98 125 156.96 125 125 C83.75 125 42.5 125 0 125 C0 83.75 0 42.5 0 0 Z " fill="#640707" transform="translate(313,406)"/>
<path d="M0 0 C10.23 0 20.46 0 31 0 C31 62.04 31 124.08 31 188 C41.23 188 51.46 188 62 188 C62 218.69 62 249.38 62 281 C51.77 281 41.54 281 31 281 C31 270.77 31 260.54 31 250 C20.77 250 10.54 250 0 250 C0 229.54 0 209.08 0 188 C-10.56 188 -21.12 188 -32 188 C-32 146.75 -32 105.5 -32 63 C-21.44 63 -10.88 63 0 63 C0 42.21 0 21.42 0 0 Z " fill="#DC1D1D" transform="translate(32,125)"/>
<path d="M0 0 C10.23 0 20.46 0 31 0 C31 20.79 31 41.58 31 63 C41.23 63 51.46 63 62 63 C62 104.25 62 145.5 62 188 C51.77 188 41.54 188 31 188 C31 208.46 31 228.92 31 250 C20.77 250 10.54 250 0 250 C0 260.23 0 270.46 0 281 C-10.23 281 -20.46 281 -31 281 C-31 250.31 -31 219.62 -31 188 C-20.77 188 -10.54 188 0 188 C0 125.96 0 63.92 0 0 Z " fill="#DC1D1D" transform="translate(438,125)"/>
<path d="M0 0 C20.79 0 41.58 0 63 0 C63 30.69 63 61.38 63 93 C21.75 93 -19.5 93 -62 93 C-62 124.02 -62 155.04 -62 187 C-72.23 187 -82.46 187 -93 187 C-93 176.77 -93 166.54 -93 156 C-103.56 156 -114.12 156 -125 156 C-125 135.21 -125 114.42 -125 93 C-114.44 93 -103.88 93 -93 93 C-93 82.77 -93 72.54 -93 62 C-51.75 62 -10.5 62 32 62 C32 51.77 32 41.54 32 31 C21.44 31 10.88 31 0 31 C0 20.77 0 10.54 0 0 Z " fill="#640707" transform="translate(125,438)"/>
<path d="M0 0 C20.79 0 41.58 0 63 0 C63 20.46 63 40.92 63 62 C52.77 62 42.54 62 32 62 C32 72.23 32 82.46 32 93 C0.98 93 -30.04 93 -62 93 C-62 82.77 -62 72.54 -62 62 C-51.77 62 -41.54 62 -31 62 C-31 51.77 -31 41.54 -31 31 C-20.77 31 -10.54 31 0 31 C0 20.77 0 10.54 0 0 Z " fill="#DC1D1D" transform="translate(125,32)"/>
<path d="M0 0 C20.46 0 40.92 0 62 0 C62 10.23 62 20.46 62 31 C93.02 31 124.04 31 156 31 C156 41.23 156 51.46 156 62 C145.77 62 135.54 62 125 62 C125 72.23 125 82.46 125 93 C104.21 93 83.42 93 62 93 C62 82.77 62 72.54 62 62 C51.77 62 41.54 62 31 62 C31 51.77 31 41.54 31 31 C20.77 31 10.54 31 0 31 C0 20.77 0 10.54 0 0 Z " fill="#DC1D1D" transform="translate(157,719)"/>
<path d="M0 0 C20.46 0 40.92 0 62 0 C62 10.23 62 20.46 62 31 C72.56 31 83.12 31 94 31 C94 41.23 94 51.46 94 62 C104.23 62 114.46 62 125 62 C125 72.23 125 82.46 125 93 C104.21 93 83.42 93 62 93 C62 82.77 62 72.54 62 62 C41.54 62 21.08 62 0 62 C0 41.54 0 21.08 0 0 Z " fill="#DC1D1D" transform="translate(313,32)"/>
<path d="M0 0 C20.79 0 41.58 0 63 0 C63 10.23 63 20.46 63 31 C52.77 31 42.54 31 32 31 C32 41.56 32 52.12 32 63 C21.44 63 10.88 63 0 63 C0 73.23 0 83.46 0 94 C-10.23 94 -20.46 94 -31 94 C-31 73.21 -31 52.42 -31 31 C-20.77 31 -10.54 31 0 31 C0 20.77 0 10.54 0 0 Z " fill="#DC1D1D" transform="translate(375,625)"/>
<path d="M0 0 C20.46 0 40.92 0 62 0 C62 10.23 62 20.46 62 31 C72.56 31 83.12 31 94 31 C94 51.79 94 72.58 94 94 C83.44 94 72.88 94 62 94 C62 83.77 62 73.54 62 63 C51.77 63 41.54 63 31 63 C31 52.44 31 41.88 31 31 C20.77 31 10.54 31 0 31 C0 20.77 0 10.54 0 0 Z " fill="#DC1D1D" transform="translate(63,625)"/>
<path d="M0 0 C20.79 0 41.58 0 63 0 C63 31.02 63 62.04 63 94 C52.77 94 42.54 94 32 94 C32 83.77 32 73.54 32 63 C21.44 63 10.88 63 0 63 C0 42.21 0 21.42 0 0 Z " fill="#DC1D1D" transform="translate(0,531)"/>
<path d="M0 0 C10.23 0 20.46 0 31 0 C31 10.23 31 20.46 31 31 C41.56 31 52.12 31 63 31 C63 41.23 63 51.46 63 62 C73.23 62 83.46 62 94 62 C94 72.23 94 82.46 94 93 C73.21 93 52.42 93 31 93 C31 82.77 31 72.54 31 62 C20.77 62 10.54 62 0 62 C0 41.54 0 21.08 0 0 Z " fill="#F02A2A" transform="translate(94,563)"/>
<path d="M0 0 C20.46 0 40.92 0 62 0 C62 20.79 62 41.58 62 63 C51.77 63 41.54 63 31 63 C31 73.23 31 83.46 31 94 C20.77 94 10.54 94 0 94 C0 62.98 0 31.96 0 0 Z " fill="#DC1D1D" transform="translate(438,531)"/>
<path d="M0 0 C10.56 0 21.12 0 32 0 C32 41.25 32 82.5 32 125 C21.44 125 10.88 125 0 125 C0 83.75 0 42.5 0 0 Z " fill="#640707" transform="translate(0,188)"/>
<path d="M0 0 C41.25 0 82.5 0 125 0 C125 10.56 125 21.12 125 32 C83.75 32 42.5 32 0 32 C0 21.44 0 10.88 0 0 Z " fill="#640707" transform="translate(188,0)"/>
<path d="M0 0 C10.23 0 20.46 0 31 0 C31 41.25 31 82.5 31 125 C20.77 125 10.54 125 0 125 C0 83.75 0 42.5 0 0 Z " fill="#640707" transform="translate(469,188)"/>
<path d="M0 0 C31.02 0 62.04 0 94 0 C94 10.56 94 21.12 94 32 C62.98 32 31.96 32 0 32 C0 21.44 0 10.88 0 0 Z " fill="#DC1D1D" transform="translate(313,406)"/>
<path d="M0 0 C31.02 0 62.04 0 94 0 C94 10.56 94 21.12 94 32 C62.98 32 31.96 32 0 32 C0 21.44 0 10.88 0 0 Z " fill="#DC1D1D" transform="translate(94,406)"/>
<path d="M0 0 C20.46 0 40.92 0 62 0 C62 10.56 62 21.12 62 32 C51.77 32 41.54 32 31 32 C31 42.23 31 52.46 31 63 C20.77 63 10.54 63 0 63 C0 42.21 0 21.42 0 0 Z " fill="#DC1D1D" transform="translate(63,125)"/>
<path d="M0 0 C10.56 0 21.12 0 32 0 C32 10.23 32 20.46 32 31 C42.23 31 52.46 31 63 31 C63 41.23 63 51.46 63 62 C42.21 62 21.42 62 0 62 C0 41.54 0 21.08 0 0 Z " fill="#DC1D1D" transform="translate(375,63)"/>
<path d="M0 0 C10.56 0 21.12 0 32 0 C32 20.79 32 41.58 32 63 C21.44 63 10.88 63 0 63 C0 42.21 0 21.42 0 0 Z " fill="#DC1D1D" transform="translate(125,656)"/>
<path d="M0 0 C10.56 0 21.12 0 32 0 C32 20.79 32 41.58 32 63 C21.44 63 10.88 63 0 63 C0 42.21 0 21.42 0 0 Z " fill="#640707" transform="translate(0,531)"/>
<path d="M0 0 C20.79 0 41.58 0 63 0 C63 10.23 63 20.46 63 31 C42.21 31 21.42 31 0 31 C0 20.77 0 10.54 0 0 Z " fill="#640707" transform="translate(219,781)"/>
<path d="M0 0 C10.23 0 20.46 0 31 0 C31 20.79 31 41.58 31 63 C20.77 63 10.54 63 0 63 C0 42.21 0 21.42 0 0 Z " fill="#DC1D1D" transform="translate(344,656)"/>
<path d="M0 0 C20.79 0 41.58 0 63 0 C63 10.23 63 20.46 63 31 C42.21 31 21.42 31 0 31 C0 20.77 0 10.54 0 0 Z " fill="#F02A2A" transform="translate(125,625)"/>
<path d="M0 0 C10.23 0 20.46 0 31 0 C31 20.79 31 41.58 31 63 C20.77 63 10.54 63 0 63 C0 42.21 0 21.42 0 0 Z " fill="#640707" transform="translate(469,531)"/>
<path d="M0 0 C10.23 0 20.46 0 31 0 C31 20.79 31 41.58 31 63 C20.77 63 10.54 63 0 63 C0 42.21 0 21.42 0 0 Z " fill="#640707" transform="translate(438,125)"/>
<path d="M0 0 C10.23 0 20.46 0 31 0 C31 20.79 31 41.58 31 63 C20.77 63 10.54 63 0 63 C0 42.21 0 21.42 0 0 Z " fill="#DC1D1D" transform="translate(407,125)"/>
<path d="M0 0 C10.23 0 20.46 0 31 0 C31 20.79 31 41.58 31 63 C20.77 63 10.54 63 0 63 C0 42.21 0 21.42 0 0 Z " fill="#640707" transform="translate(32,125)"/>
<path d="M0 0 C20.79 0 41.58 0 63 0 C63 10.23 63 20.46 63 31 C42.21 31 21.42 31 0 31 C0 20.77 0 10.54 0 0 Z " fill="#640707" transform="translate(125,32)"/>
<path d="M0 0 C10.23 0 20.46 0 31 0 C31 20.46 31 40.92 31 62 C20.77 62 10.54 62 0 62 C0 41.54 0 21.08 0 0 Z " fill="#640707" transform="translate(438,313)"/>
<path d="M0 0 C10.23 0 20.46 0 31 0 C31 20.46 31 40.92 31 62 C20.77 62 10.54 62 0 62 C0 41.54 0 21.08 0 0 Z " fill="#640707" transform="translate(32,313)"/>
<path d="M0 0 C10.23 0 20.46 0 31 0 C31 20.46 31 40.92 31 62 C20.77 62 10.54 62 0 62 C0 41.54 0 21.08 0 0 Z " fill="#FFFFFF" transform="translate(94,157)"/>
<path d="M0 0 C20.46 0 40.92 0 62 0 C62 10.23 62 20.46 62 31 C41.54 31 21.08 31 0 31 C0 20.77 0 10.54 0 0 Z " fill="#FFFFFF" transform="translate(157,94)"/>
<path d="M0 0 C20.46 0 40.92 0 62 0 C62 10.23 62 20.46 62 31 C41.54 31 21.08 31 0 31 C0 20.77 0 10.54 0 0 Z " fill="#DC1D1D" transform="translate(63,94)"/>
<path d="M0 0 C20.46 0 40.92 0 62 0 C62 10.23 62 20.46 62 31 C41.54 31 21.08 31 0 31 C0 20.77 0 10.54 0 0 Z " fill="#640707" transform="translate(313,32)"/>
<path d="M0 0 C10.56 0 21.12 0 32 0 C32 10.56 32 21.12 32 32 C21.44 32 10.88 32 0 32 C0 21.44 0 10.88 0 0 Z " fill="#640707" transform="translate(375,656)"/>
<path d="M0 0 C10.56 0 21.12 0 32 0 C32 10.56 32 21.12 32 32 C21.44 32 10.88 32 0 32 C0 21.44 0 10.88 0 0 Z " fill="#640707" transform="translate(375,406)"/>
<path d="M0 0 C10.56 0 21.12 0 32 0 C32 10.56 32 21.12 32 32 C21.44 32 10.88 32 0 32 C0 21.44 0 10.88 0 0 Z " fill="#FFFFFF" transform="translate(125,125)"/>
<path d="M0 0 C10.56 0 21.12 0 32 0 C32 10.23 32 20.46 32 31 C21.44 31 10.88 31 0 31 C0 20.77 0 10.54 0 0 Z " fill="#640707" transform="translate(125,688)"/>
<path d="M0 0 C10.23 0 20.46 0 31 0 C31 10.56 31 21.12 31 32 C20.77 32 10.54 32 0 32 C0 21.44 0 10.88 0 0 Z " fill="#640707" transform="translate(94,656)"/>
<path d="M0 0 C10.56 0 21.12 0 32 0 C32 10.23 32 20.46 32 31 C21.44 31 10.88 31 0 31 C0 20.77 0 10.54 0 0 Z " fill="#FFFFFF" transform="translate(125,594)"/>
<path d="M0 0 C10.23 0 20.46 0 31 0 C31 10.56 31 21.12 31 32 C20.77 32 10.54 32 0 32 C0 21.44 0 10.88 0 0 Z " fill="#640707" transform="translate(94,406)"/>
<path d="M0 0 C10.56 0 21.12 0 32 0 C32 10.23 32 20.46 32 31 C21.44 31 10.88 31 0 31 C0 20.77 0 10.54 0 0 Z " fill="#DC1D1D" transform="translate(375,375)"/>
<path d="M0 0 C10.23 0 20.46 0 31 0 C31 10.56 31 21.12 31 32 C20.77 32 10.54 32 0 32 C0 21.44 0 10.88 0 0 Z " fill="#F02A2A" transform="translate(94,125)"/>
<path d="M0 0 C10.56 0 21.12 0 32 0 C32 10.23 32 20.46 32 31 C21.44 31 10.88 31 0 31 C0 20.77 0 10.54 0 0 Z " fill="#F02A2A" transform="translate(125,94)"/>
<path d="M0 0 C10.56 0 21.12 0 32 0 C32 10.23 32 20.46 32 31 C21.44 31 10.88 31 0 31 C0 20.77 0 10.54 0 0 Z " fill="#640707" transform="translate(375,63)"/>
<path d="M0 0 C10.23 0 20.46 0 31 0 C31 10.23 31 20.46 31 31 C20.77 31 10.54 31 0 31 C0 20.77 0 10.54 0 0 Z " fill="#640707" transform="translate(282,750)"/>
<path d="M0 0 C10.23 0 20.46 0 31 0 C31 10.23 31 20.46 31 31 C20.77 31 10.54 31 0 31 C0 20.77 0 10.54 0 0 Z " fill="#640707" transform="translate(188,750)"/>
<path d="M0 0 C10.23 0 20.46 0 31 0 C31 10.23 31 20.46 31 31 C20.77 31 10.54 31 0 31 C0 20.77 0 10.54 0 0 Z " fill="#640707" transform="translate(313,719)"/>
<path d="M0 0 C10.23 0 20.46 0 31 0 C31 10.23 31 20.46 31 31 C20.77 31 10.54 31 0 31 C0 20.77 0 10.54 0 0 Z " fill="#DC1D1D" transform="translate(282,719)"/>
<path d="M0 0 C10.23 0 20.46 0 31 0 C31 10.23 31 20.46 31 31 C20.77 31 10.54 31 0 31 C0 20.77 0 10.54 0 0 Z " fill="#640707" transform="translate(157,719)"/>
<path d="M0 0 C10.23 0 20.46 0 31 0 C31 10.23 31 20.46 31 31 C20.77 31 10.54 31 0 31 C0 20.77 0 10.54 0 0 Z " fill="#640707" transform="translate(344,688)"/>
<path d="M0 0 C10.23 0 20.46 0 31 0 C31 10.23 31 20.46 31 31 C20.77 31 10.54 31 0 31 C0 20.77 0 10.54 0 0 Z " fill="#DC1D1D" transform="translate(313,688)"/>
<path d="M0 0 C10.23 0 20.46 0 31 0 C31 10.23 31 20.46 31 31 C20.77 31 10.54 31 0 31 C0 20.77 0 10.54 0 0 Z " fill="#DC1D1D" transform="translate(157,688)"/>
<path d="M0 0 C10.23 0 20.46 0 31 0 C31 10.23 31 20.46 31 31 C20.77 31 10.54 31 0 31 C0 20.77 0 10.54 0 0 Z " fill="#640707" transform="translate(407,625)"/>
<path d="M0 0 C10.23 0 20.46 0 31 0 C31 10.23 31 20.46 31 31 C20.77 31 10.54 31 0 31 C0 20.77 0 10.54 0 0 Z " fill="#FFFFFF" transform="translate(157,625)"/>
<path d="M0 0 C10.23 0 20.46 0 31 0 C31 10.23 31 20.46 31 31 C20.77 31 10.54 31 0 31 C0 20.77 0 10.54 0 0 Z " fill="#640707" transform="translate(63,625)"/>
<path d="M0 0 C10.23 0 20.46 0 31 0 C31 10.23 31 20.46 31 31 C20.77 31 10.54 31 0 31 C0 20.77 0 10.54 0 0 Z " fill="#640707" transform="translate(438,594)"/>
<path d="M0 0 C10.23 0 20.46 0 31 0 C31 10.23 31 20.46 31 31 C20.77 31 10.54 31 0 31 C0 20.77 0 10.54 0 0 Z " fill="#DC1D1D" transform="translate(407,594)"/>
<path d="M0 0 C10.23 0 20.46 0 31 0 C31 10.23 31 20.46 31 31 C20.77 31 10.54 31 0 31 C0 20.77 0 10.54 0 0 Z " fill="#DC1D1D" transform="translate(63,594)"/>
<path d="M0 0 C10.23 0 20.46 0 31 0 C31 10.23 31 20.46 31 31 C20.77 31 10.54 31 0 31 C0 20.77 0 10.54 0 0 Z " fill="#640707" transform="translate(32,594)"/>
<path d="M0 0 C10.23 0 20.46 0 31 0 C31 10.23 31 20.46 31 31 C20.77 31 10.54 31 0 31 C0 20.77 0 10.54 0 0 Z " fill="#FFFFFF" transform="translate(94,563)"/>
<path d="M0 0 C10.23 0 20.46 0 31 0 C31 10.23 31 20.46 31 31 C20.77 31 10.54 31 0 31 C0 20.77 0 10.54 0 0 Z " fill="#640707" transform="translate(407,375)"/>
<path d="M0 0 C10.23 0 20.46 0 31 0 C31 10.23 31 20.46 31 31 C20.77 31 10.54 31 0 31 C0 20.77 0 10.54 0 0 Z " fill="#DC1D1D" transform="translate(94,375)"/>
<path d="M0 0 C10.23 0 20.46 0 31 0 C31 10.23 31 20.46 31 31 C20.77 31 10.54 31 0 31 C0 20.77 0 10.54 0 0 Z " fill="#640707" transform="translate(63,375)"/>
<path d="M0 0 C10.23 0 20.46 0 31 0 C31 10.23 31 20.46 31 31 C20.77 31 10.54 31 0 31 C0 20.77 0 10.54 0 0 Z " fill="#640707" transform="translate(407,94)"/>
<path d="M0 0 C10.23 0 20.46 0 31 0 C31 10.23 31 20.46 31 31 C20.77 31 10.54 31 0 31 C0 20.77 0 10.54 0 0 Z " fill="#640707" transform="translate(63,94)"/>
<path d="M0 0 C10.23 0 20.46 0 31 0 C31 10.23 31 20.46 31 31 C20.77 31 10.54 31 0 31 C0 20.77 0 10.54 0 0 Z " fill="#640707" transform="translate(94,63)"/>
</svg>
