<?xml version="1.0" encoding="UTF-8"?>
<svg version="1.1" xmlns="http://www.w3.org/2000/svg" width="500" height="500">
<path d="M0 0 C0.75902618 0.00337372 1.51805237 0.00674744 2.30007935 0.01022339 C14.78848848 0.09024058 26.6897491 0.96285067 38.75 4.4375 C39.9862915 4.79158936 39.9862915 4.79158936 41.24755859 5.15283203 C77.03084395 15.79926894 108.06761495 40.02450549 126.75 72.4375 C138.15033319 93.57004605 145.04533899 116.3564758 145.75 140.4375 C145.78996094 141.30632812 145.82992188 142.17515625 145.87109375 143.0703125 C146.85359357 180.86765865 131.88970815 217.94038085 106.140625 245.32421875 C104.86978073 246.63786055 103.59380021 247.94655467 102.3125 249.25 C101.45458862 250.12906006 101.45458862 250.12906006 100.5793457 251.02587891 C97.71856814 253.85535867 95.17454964 256.19614644 91.64892578 258.20043945 C85.61890627 261.68058722 85.61890627 261.68058722 82.08816528 267.45504761 C81.07730199 273.2727957 81.31684216 279.12215075 81.5 285 C81.51199065 286.78968522 81.51855031 288.57941551 81.51953125 290.36914062 C81.53365365 294.72829835 81.62153767 299.08027383 81.75 303.4375 C82.77904198 303.42750725 82.77904198 303.42750725 83.82887268 303.41731262 C90.98295393 303.350831 98.1369471 303.30564592 105.29125977 303.27270508 C107.95973072 303.25933639 110.62771718 303.23718395 113.29614258 303.21118164 C117.13629252 303.17470415 120.97611438 303.15775141 124.81640625 303.14453125 C126.00520889 303.12904739 127.19401154 303.11356354 128.4188385 303.09761047 C135.5117334 303.09617628 141.1999987 303.26229964 146.7109375 308.19140625 C147.17757813 308.78824219 147.64421875 309.38507813 148.125 310 C148.60710937 310.59941406 149.08921875 311.19882812 149.5859375 311.81640625 C151.85437765 314.97547558 151.97048317 317.26513609 152.0625 321.125 C152.09988281 322.13949219 152.13726562 323.15398437 152.17578125 324.19921875 C151.26154212 331.15246863 146.5674096 336.12370793 142.0625 341.1875 C140.98598007 342.41970077 139.91046791 343.65278266 138.8359375 344.88671875 C138.04654785 345.79043213 138.04654785 345.79043213 137.24121094 346.71240234 C135.1748748 349.10282984 133.17788164 351.54615404 131.1875 354 C127.92221433 358.02108416 124.6043221 361.99086443 121.25 365.9375 C116.34446792 371.71286149 111.52971173 377.55742298 106.75 383.4375 C101.51081592 389.88282718 96.21460425 396.27172912 90.83642578 402.60107422 C87.93780161 406.01770732 85.07859421 409.46236997 82.25 412.9375 C78.9617626 416.97733452 75.62268539 420.96833277 72.25 424.9375 C67.34454156 430.71292544 62.52971335 436.55742099 57.75 442.4375 C52.51081592 448.88282718 47.21460425 455.27172912 41.83642578 461.60107422 C38.93780161 465.01770732 36.07859421 468.46236997 33.25 471.9375 C29.00611993 477.14728109 24.69008967 482.29187898 20.33203125 487.40625 C18.75863423 489.25338478 17.19176689 491.10614151 15.63671875 492.96875 C15.03472656 493.6803125 14.43273437 494.391875 13.8125 495.125 C13.30847656 495.72699219 12.80445313 496.32898438 12.28515625 496.94921875 C8.66795493 500.45597117 5.3124422 500.75495405 0.375 500.8125 C-6.52474111 500.65883093 -9.47427407 499.30912433 -14.28515625 494.33203125 C-19.04271791 489.19908737 -23.46496337 483.79305918 -27.8671875 478.35546875 C-30.45756041 475.18332357 -33.09690728 472.05713623 -35.75 468.9375 C-41.39888833 462.28743136 -46.91824155 455.53628197 -52.421875 448.765625 C-56.94411815 443.21705717 -61.52883279 437.72835205 -66.16357422 432.27392578 C-69.80954932 427.97638375 -73.3797728 423.62092199 -76.9375 419.25 C-79.51146545 416.11950149 -82.12576903 413.02584366 -84.75 409.9375 C-90.39857944 403.28716349 -95.91823508 396.53628994 -101.421875 389.765625 C-105.94411815 384.21705717 -110.52883279 378.72835205 -115.16357422 373.27392578 C-118.81258097 368.97281031 -122.38630258 364.61421694 -125.9453125 360.23828125 C-128.01765629 357.71985668 -130.11911366 355.23155523 -132.23681641 352.75146484 C-136.70934439 347.51122892 -141.09493444 342.2114588 -145.375 336.8125 C-145.84856934 336.22041748 -146.32213867 335.62833496 -146.81005859 335.01831055 C-151.74351772 328.7435843 -151.98436165 323.23621389 -151.25 315.4375 C-148.93387827 310.53801173 -145.56204659 307.58170064 -141.25 304.4375 C-138.01498718 303.32574388 -134.96607572 303.31644674 -131.56347656 303.32397461 C-130.42259583 303.32405014 -129.28171509 303.32412567 -128.10626221 303.32420349 C-126.88010193 303.32936478 -125.65394165 303.33452606 -124.390625 303.33984375 C-123.13111023 303.3412587 -121.87159546 303.34267365 -120.57391357 303.34413147 C-117.23334881 303.34877927 -113.89285279 303.35775719 -110.55230713 303.36883545 C-107.14034631 303.37908402 -103.72837816 303.38369133 -100.31640625 303.38867188 C-93.62756553 303.39884966 -86.93884497 303.41842535 -80.25 303.4375 C-80.25 290.8975 -80.25 278.3575 -80.25 265.4375 C-81.9 264.7775 -83.55 264.1175 -85.25 263.4375 C-87.33565729 261.88175835 -89.29087686 260.32510014 -91.25 258.625 C-91.81251465 258.13999023 -92.3750293 257.65498047 -92.95458984 257.15527344 C-124.43538143 229.65662257 -142.0996125 194.33296998 -145.109375 152.56396484 C-147.51878907 116.12994298 -134.72715956 79.20807928 -111.25 51.4375 C-110.81961426 50.92735352 -110.38922852 50.41720703 -109.94580078 49.89160156 C-92.23942896 29.18492869 -69.51647028 14.4640836 -43.625 6.0625 C-42.9350293 5.83594727 -42.24505859 5.60939453 -41.53417969 5.37597656 C-27.90164338 1.23073804 -14.1740517 -0.12353181 0 0 Z " fill="#FE4949" transform="translate(249.25,-0.4375)"/>
<path d="M0 0 C0.75902618 0.00337372 1.51805237 0.00674744 2.30007935 0.01022339 C14.78848848 0.09024058 26.6897491 0.96285067 38.75 4.4375 C39.9862915 4.79158936 39.9862915 4.79158936 41.24755859 5.15283203 C77.03084395 15.79926894 108.06761495 40.02450549 126.75 72.4375 C138.15033319 93.57004605 145.04533899 116.3564758 145.75 140.4375 C145.78996094 141.30632812 145.82992188 142.17515625 145.87109375 143.0703125 C146.85359357 180.86765865 131.88970815 217.94038085 106.140625 245.32421875 C104.86978073 246.63786055 103.59380021 247.94655467 102.3125 249.25 C101.45458862 250.12906006 101.45458862 250.12906006 100.5793457 251.02587891 C97.71856814 253.85535867 95.17454964 256.19614644 91.64892578 258.20043945 C85.61890627 261.68058722 85.61890627 261.68058722 82.08816528 267.45504761 C81.07730199 273.2727957 81.31684216 279.12215075 81.5 285 C81.51199065 286.78968522 81.51855031 288.57941551 81.51953125 290.36914062 C81.53365365 294.72829835 81.62153767 299.08027383 81.75 303.4375 C82.77904198 303.42750725 82.77904198 303.42750725 83.82887268 303.41731262 C90.98295393 303.350831 98.1369471 303.30564592 105.29125977 303.27270508 C107.95973072 303.25933639 110.62771718 303.23718395 113.29614258 303.21118164 C117.13629252 303.17470415 120.97611438 303.15775141 124.81640625 303.14453125 C126.00520889 303.12904739 127.19401154 303.11356354 128.4188385 303.09761047 C135.5117334 303.09617628 141.1999987 303.26229964 146.7109375 308.19140625 C147.17757813 308.78824219 147.64421875 309.38507813 148.125 310 C148.60710937 310.59941406 149.08921875 311.19882812 149.5859375 311.81640625 C151.85437765 314.97547558 151.97048317 317.26513609 152.0625 321.125 C152.09988281 322.13949219 152.13726562 323.15398437 152.17578125 324.19921875 C151.26154212 331.15246863 146.5674096 336.12370793 142.0625 341.1875 C140.98598007 342.41970077 139.91046791 343.65278266 138.8359375 344.88671875 C138.04654785 345.79043213 138.04654785 345.79043213 137.24121094 346.71240234 C135.1748748 349.10282984 133.17788164 351.54615404 131.1875 354 C127.92221433 358.02108416 124.6043221 361.99086443 121.25 365.9375 C116.34446792 371.71286149 111.52971173 377.55742298 106.75 383.4375 C101.51081592 389.88282718 96.21460425 396.27172912 90.83642578 402.60107422 C87.93780161 406.01770732 85.07859421 409.46236997 82.25 412.9375 C78.9617626 416.97733452 75.62268539 420.96833277 72.25 424.9375 C67.34454156 430.71292544 62.52971335 436.55742099 57.75 442.4375 C52.51081592 448.88282718 47.21460425 455.27172912 41.83642578 461.60107422 C38.93780161 465.01770732 36.07859421 468.46236997 33.25 471.9375 C29.00611993 477.14728109 24.69008967 482.29187898 20.33203125 487.40625 C18.75863423 489.25338478 17.19176689 491.10614151 15.63671875 492.96875 C15.03472656 493.6803125 14.43273437 494.391875 13.8125 495.125 C13.30847656 495.72699219 12.80445313 496.32898438 12.28515625 496.94921875 C8.66795493 500.45597117 5.3124422 500.75495405 0.375 500.8125 C-6.52474111 500.65883093 -9.47427407 499.30912433 -14.28515625 494.33203125 C-19.04271791 489.19908737 -23.46496337 483.79305918 -27.8671875 478.35546875 C-30.45756041 475.18332357 -33.09690728 472.05713623 -35.75 468.9375 C-41.39888833 462.28743136 -46.91824155 455.53628197 -52.421875 448.765625 C-56.94411815 443.21705717 -61.52883279 437.72835205 -66.16357422 432.27392578 C-69.80954932 427.97638375 -73.3797728 423.62092199 -76.9375 419.25 C-79.51146545 416.11950149 -82.12576903 413.02584366 -84.75 409.9375 C-90.39857944 403.28716349 -95.91823508 396.53628994 -101.421875 389.765625 C-105.94411815 384.21705717 -110.52883279 378.72835205 -115.16357422 373.27392578 C-118.81258097 368.97281031 -122.38630258 364.61421694 -125.9453125 360.23828125 C-128.01765629 357.71985668 -130.11911366 355.23155523 -132.23681641 352.75146484 C-136.70934439 347.51122892 -141.09493444 342.2114588 -145.375 336.8125 C-145.84856934 336.22041748 -146.32213867 335.62833496 -146.81005859 335.01831055 C-151.74351772 328.7435843 -151.98436165 323.23621389 -151.25 315.4375 C-148.93387827 310.53801173 -145.56204659 307.58170064 -141.25 304.4375 C-138.01498718 303.32574388 -134.96607572 303.31644674 -131.56347656 303.32397461 C-130.42259583 303.32405014 -129.28171509 303.32412567 -128.10626221 303.32420349 C-126.88010193 303.32936478 -125.65394165 303.33452606 -124.390625 303.33984375 C-123.13111023 303.3412587 -121.87159546 303.34267365 -120.57391357 303.34413147 C-117.23334881 303.34877927 -113.89285279 303.35775719 -110.55230713 303.36883545 C-107.14034631 303.37908402 -103.72837816 303.38369133 -100.31640625 303.38867188 C-93.62756553 303.39884966 -86.93884497 303.41842535 -80.25 303.4375 C-80.25 290.8975 -80.25 278.3575 -80.25 265.4375 C-81.9 264.7775 -83.55 264.1175 -85.25 263.4375 C-87.33565729 261.88175835 -89.29087686 260.32510014 -91.25 258.625 C-91.81251465 258.13999023 -92.3750293 257.65498047 -92.95458984 257.15527344 C-124.43538143 229.65662257 -142.0996125 194.33296998 -145.109375 152.56396484 C-147.51878907 116.12994298 -134.72715956 79.20807928 -111.25 51.4375 C-110.81961426 50.92735352 -110.38922852 50.41720703 -109.94580078 49.89160156 C-92.23942896 29.18492869 -69.51647028 14.4640836 -43.625 6.0625 C-42.9350293 5.83594727 -42.24505859 5.60939453 -41.53417969 5.37597656 C-27.90164338 1.23073804 -14.1740517 -0.12353181 0 0 Z M-85.25 34.4375 C-85.80333008 34.87562012 -86.35666016 35.31374023 -86.92675781 35.76513672 C-115.60828607 58.56095926 -132.16845025 89.86651545 -138.83203125 125.5546875 C-142.87527182 163.11525875 -134.08903564 200.92476404 -110.58984375 230.90234375 C-107.9228042 234.18596733 -105.12035204 237.33114779 -102.25 240.4375 C-101.77836426 240.95296387 -101.30672852 241.46842773 -100.82080078 241.99951172 C-93.47068136 249.94699947 -85.45402551 256.70717007 -76.25 262.4375 C-75.59 262.4375 -74.93 262.4375 -74.25 262.4375 C-74.25 277.9475 -74.25 293.4575 -74.25 309.4375 C-78.78878906 309.36789062 -83.32757813 309.29828125 -88.00390625 309.2265625 C-90.88872371 309.19588513 -93.77333853 309.1670011 -96.65820312 309.14453125 C-101.2319544 309.10873737 -105.80498131 309.06651211 -110.37817383 308.98486328 C-114.06759989 308.91940934 -117.75624876 308.88374032 -121.44621086 308.86823654 C-122.85004848 308.85719622 -124.25384612 308.83563594 -125.65735054 308.80311966 C-134.75945115 308.40212706 -134.75945115 308.40212706 -142.60522461 312.34912109 C-145.24865047 315.11172977 -146.19971061 316.78373788 -146.5 320.6875 C-146.03331991 327.6877013 -142.10034176 332.10352438 -137.625 337.125 C-136.53936289 338.36631214 -135.45473609 339.60850858 -134.37109375 340.8515625 C-133.8385498 341.46032227 -133.30600586 342.06908203 -132.75732422 342.69628906 C-130.68424502 345.09104139 -128.68230682 347.53985849 -126.6875 350 C-123.42221697 354.02108091 -120.10442156 357.99095162 -116.75 361.9375 C-112.63010546 366.78564795 -108.58203905 371.68596005 -104.56640625 376.62109375 C-101.97212734 379.77535192 -99.33393735 382.8895298 -96.6875 386 C-92.81758198 390.55034316 -89.05040103 395.16582835 -85.33984375 399.84765625 C-82.41779685 403.46880969 -79.40178514 407.00704569 -76.38671875 410.55078125 C-73.46995487 413.98321609 -70.59306574 417.44342815 -67.75 420.9375 C-64.4617626 424.97733452 -61.12268539 428.96833277 -57.75 432.9375 C-52.10142056 439.58783651 -46.58176492 446.33871006 -41.078125 453.109375 C-36.55885384 458.65429635 -31.97796545 464.14012458 -27.34521484 469.59008789 C-24.35669047 473.1116409 -21.41436796 476.66651694 -18.5 480.25 C-12.08586559 488.59211557 -12.08586559 488.59211557 -4.25 495.4375 C1.07385584 495.93975055 4.16490919 495.09543825 8.75 492.4375 C11.04143202 490.36895614 11.04143202 490.36895614 13.0625 487.9375 C13.83464844 487.04675781 14.60679687 486.15601563 15.40234375 485.23828125 C18.42095274 481.63704556 21.40710446 478.01203323 24.36328125 474.359375 C26.97390367 471.16339208 29.63716503 468.01674943 32.3125 464.875 C35.51756444 461.10676467 38.67688394 457.31503089 41.75 453.4375 C45.27883403 448.98496299 48.93229329 444.65064021 52.61328125 440.32421875 C55.53004513 436.89178391 58.40693426 433.43157185 61.25 429.9375 C64.5382374 425.89766548 67.87731461 421.90666723 71.25 417.9375 C76.15545844 412.16207456 80.97028665 406.31757901 85.75 400.4375 C90.98918408 393.99217282 96.28539575 387.60327088 101.66357422 381.27392578 C104.56219839 377.85729268 107.42140579 374.41263003 110.25 370.9375 C113.5382374 366.89766548 116.87731461 362.90666723 120.25 358.9375 C124.40349032 354.04740177 128.50327442 349.11849285 132.546875 344.13671875 C134.08470768 342.25260106 135.63809511 340.38111935 137.203125 338.51953125 C138.00234375 337.56433594 138.8015625 336.60914063 139.625 335.625 C140.34429687 334.77292969 141.06359375 333.92085938 141.8046875 333.04296875 C144.6727805 329.20156708 146.53619161 325.74410686 147.3125 321 C146.55560069 316.20630434 144.26963116 313.66534827 140.75 310.4375 C138.02521848 309.07510924 135.88159145 309.31780042 132.83154297 309.32397461 C130.96983963 309.32408791 130.96983963 309.32408791 129.07052612 309.32420349 C127.71107951 309.3293105 126.35163331 309.3345265 124.9921875 309.33984375 C123.60499116 309.34170858 122.21779416 309.34313218 120.83059692 309.34413147 C117.17765488 309.34795152 113.52475252 309.35777745 109.87182617 309.36883545 C106.14502509 309.37906056 102.41821742 309.3836862 98.69140625 309.38867188 C91.3775691 309.39886964 84.06384098 309.41844251 76.75 309.4375 C76.75 293.5975 76.75 277.7575 76.75 261.4375 C79.225 260.4475 79.225 260.4475 81.75 259.4375 C83.85531029 257.86063672 85.8326315 256.2821675 87.8125 254.5625 C88.65905151 253.83329346 88.65905151 253.83329346 89.52270508 253.08935547 C109.52456315 235.64525836 123.85788935 215.54298592 132.75 190.4375 C133.12769531 189.39722656 133.50539063 188.35695312 133.89453125 187.28515625 C144.44963181 155.93611226 142.31030028 119.50978676 128.75 89.4375 C128.46817871 88.79586914 128.18635742 88.15423828 127.89599609 87.49316406 C112.51154244 52.95247464 84.89942819 29.3839336 50.75 14.4375 C49.81800781 14.025 48.88601563 13.6125 47.92578125 13.1875 C4.74492008 -4.16618989 -49.56480423 5.51103164 -85.25 34.4375 Z " fill="#060101" transform="translate(249.25,-0.4375)"/>
</svg>
