<!DOCTYPE svg PUBLIC "-//W3C//DTD SVG 1.1//EN" "http://www.w3.org/Graphics/SVG/1.1/DTD/svg11.dtd">
<!-- Uploaded to: SVG Repo, www.svgrepo.com, Transformed by: SVG Repo Mixer Tools -->
<svg fill="#121212" version="1.1" id="Capa_1" xmlns="http://www.w3.org/2000/svg" xmlns:xlink="http://www.w3.org/1999/xlink" width="100px" height="100px" viewBox="0 0 50.80 50.80" xml:space="preserve" stroke="#121212" stroke-width="0.0005079800000000001">
<g id="SVGRepo_bgCarrier" stroke-width="0"/>
<g id="SVGRepo_tracerCarrier" stroke-linecap="round" stroke-linejoin="round" stroke="#CCCCCC" stroke-width="2.235112"/>
<g id="SVGRepo_iconCarrier"> <g> <g> <path d="M14.529,29.307c-1.089,0-2.45-0.233-3.52,0.075c-5.09,1.467,1.597,7.244,3.195,9.232c2.31,2.875,4.618,5.749,6.928,8.624 c0.889,1.107,2.183,3.595,3.916,3.56c3.653-0.074,7.316-7.206,9.19-9.537c1.169-1.454,10.604-10.628,6.324-11.896 c-0.083-0.035-0.209-0.058-0.4-0.058c-1.921,0-6.465,1.044-6.465-1.586c0-2.575-0.215-3.327,1.771-5.596 c1.671-1.908,2.689-3.769,3.387-6.224c2.782-9.799-7.06-17.092-15.896-15.74c-8.304,1.271-12.877,9.803-10.633,17.521 c0.679,2.337,2.369,4.27,4.123,5.859c1.172,1.062,0.738,3.353,0.738,4.712C17.188,29.913,16.295,29.307,14.529,29.307z M12.359,30.666c-0.244,0.419-0.489,0.839-0.732,1.259c-0.062,0.106-0.102,0.229-0.13,0.356c-0.165-0.204-0.33-0.41-0.495-0.615 c-0.802-0.998,0.321-1.353,1.794-1.455C12.618,30.345,12.458,30.495,12.359,30.666z M13.945,31.536 c0.169-0.29,0.338-0.58,0.507-0.87c0.107-0.185,0.12-0.346,0.088-0.485c0.15,0.003,0.296,0.008,0.439,0.013 c-0.188,0.136-0.357,0.288-0.464,0.462c-0.183,0.299-0.364,0.597-0.547,0.895C13.679,32.02,13.667,32.014,13.945,31.536z M17.107,39.231c-0.005,0.006-0.005,0.017-0.009,0.021c-0.17-0.211-0.34-0.422-0.51-0.634c0.076-0.063,0.148-0.141,0.206-0.246 c0.431-0.791,0.865-1.58,1.306-2.367c4.075-6.161,8.126-12.337,12.21-18.494c0.306-0.461,0.377-0.423,0.151,0.081 c-0.471,1.052-0.965,2.092-1.482,3.119C25.356,26.844,21.617,32.9,17.494,38.71C17.366,38.886,17.236,39.059,17.107,39.231z M29.963,39.727c-1.035,2.853-2.077,5.703-3.114,8.554c-0.042,0.053-0.084,0.104-0.126,0.157c-1.13,1.406-1.12,1.404-2.225,0.029 c-0.268-0.333-0.535-0.665-0.802-0.998c0.072-0.064,0.141-0.139,0.195-0.245c0.051-0.098,0.102-0.196,0.151-0.294 c0.253-0.491,0.758-1.223,1.121-1.64c1.599-1.831,3.109-3.745,4.55-5.696C30.042,39.149,30.152,39.208,29.963,39.727z M28.381,38.538c1.36-2.613,2.737-5.22,4.16-7.805c0.098-0.176,0.194-0.352,0.292-0.527c0.149,0.038,0.312,0.063,0.504,0.063 c0.01,0,0.019,0,0.025,0c-0.04,0.086-0.08,0.172-0.115,0.273c-0.121,0.343-0.241,0.685-0.361,1.026 c-0.186,0.521-0.571,1.322-0.867,1.788c-1.114,1.755-2.283,3.519-3.516,5.254C28.184,39.062,28.126,39.027,28.381,38.538z M39.404,30.384c1.812,0.992-1.349,3.948-1.829,4.546c-0.23,0.287-0.461,0.574-0.69,0.86c0.811-1.697,1.62-3.395,2.438-5.088 C39.376,30.589,39.398,30.483,39.404,30.384z M34.513,33.059c0.186-0.52,0.58-1.317,0.872-1.786 c0.129-0.206,0.256-0.412,0.383-0.619c0.087-0.141,0.115-0.268,0.116-0.384c0.553,0,1.104,0,1.657,0 c-0.143,0.13-0.271,0.273-0.349,0.434c-1.867,3.869-3.714,7.751-5.565,11.629c-0.281,0.351-0.562,0.7-0.846,1.052 C32.031,39.943,33.279,36.504,34.513,33.059z M36.915,10.693c0.499,2.701,0.146,5.595-0.896,8.148 c-1.414,3.465-4.254,3.976-4.254,7.731c0,0.364-0.033,0.799-0.044,1.237c-3.285,5.662-6.513,11.356-9.686,17.083 c-0.059,0.107-0.096,0.229-0.123,0.355c-1.252-1.559-2.504-3.116-3.756-4.676c0.094-0.061,0.184-0.141,0.262-0.248 c0.389-0.53,0.776-1.064,1.157-1.601c4.343-5.901,8.5-11.95,11.76-18.449C33.213,17.093,35.061,13.892,36.915,10.693z M33.74,7.38 c0.301-0.589,0.602-1.179,0.899-1.769c0.266,0.33,0.504,0.675,0.725,1.029c-0.209,0.156-0.444,0.291-0.646,0.369 c-0.299,0.114-0.542,0.241-0.622,0.326c-0.142,0.151-0.275,0.308-0.408,0.465C33.466,8.062,33.489,7.873,33.74,7.38z M31.425,2.915c0.028,0.017,0.06,0.031,0.089,0.048c-0.547,0.879-1.096,1.758-1.642,2.639c-0.291,0.469-0.293,0.469-0.01-0.005 C30.394,4.708,30.915,3.813,31.425,2.915z M26.005,1.307c0.013-0.026,0.018-0.049,0.03-0.075c0.422,0.034,0.841,0.095,1.259,0.17 c-1.152,1.519-2.301,3.045-3.429,4.584c-0.327,0.446-0.385,0.41-0.135-0.082C24.507,4.38,25.265,2.848,26.005,1.307z M15.033,18.138c-1.111-2.091-1.665-4.295-1.279-7.096c1.521-2.637,3.071-5.252,4.682-7.823c0.048-0.077,0.066-0.13,0.092-0.188 c1.6-1.037,3.463-1.635,5.398-1.794c-0.03,0.048-0.068,0.094-0.092,0.144C21.114,7.068,18.128,12.629,15.033,18.138z M16.249,20.126c4.041-6.253,8.318-12.352,12.808-18.287c0.245,0.081,0.482,0.183,0.725,0.279 c-3.699,6.729-8.096,13.093-12.138,19.631c-0.035,0.056-0.057,0.113-0.086,0.17C17.092,21.311,16.654,20.715,16.249,20.126z M27.926,8.764c-2.988,4.865-5.967,9.736-8.946,14.606c-0.047,0.077-0.087,0.154-0.128,0.232 c-0.013-0.017-0.023-0.038-0.035-0.055c-0.039-0.05-0.076-0.098-0.115-0.148c0.062-0.072,0.123-0.151,0.183-0.251 c0.477-0.8,0.952-1.599,1.439-2.391c2.476-4.034,5.091-7.984,7.597-11.994C28.212,8.293,28.214,8.293,27.926,8.764z M19.527,25.917c4.48-7.321,8.945-14.653,13.455-21.957c0.029,0.023,0.062,0.042,0.092,0.066c0.062,0.051,0.115,0.107,0.176,0.159 c-3.542,6.972-7.126,13.923-10.909,20.755c-1.025,1.83-2.049,3.651-3.106,5.426c-0.92,1.55-1.822,3.109-2.713,4.676 c-0.399,0.666-0.798,1.334-1.203,1.997c-0.331-0.413-0.663-0.826-0.995-1.239c-0.179-0.223-0.358-0.445-0.537-0.668 c0.086-0.062,0.166-0.141,0.233-0.247c0.87-1.409,1.737-2.819,2.604-4.231c0.087-0.141,0.114-0.268,0.115-0.385 c0.006,0,0.017,0,0.023,0C18.73,30.27,19.608,27.947,19.527,25.917z"/> </g> </g> </g>
</svg>