<?xml version="1.0" encoding="UTF-8"?>
<svg version="1.1" xmlns="http://www.w3.org/2000/svg" width="500" height="611">
<path d="M0 0 C45.87 0 91.74 0 139 0 C139 9.24 139 18.48 139 28 C184.87 28 230.74 28 278 28 C278 37.24 278 46.48 278 56 C314.63 56 351.26 56 389 56 C389 65.24 389 74.48 389 84 C416.39 84 443.78 84 472 84 C472 120.63 472 157.26 472 195 C463.09 195 454.18 195 445 195 C445 250.11 445 305.22 445 362 C435.76 362 426.52 362 417 362 C417 435.26 417 508.52 417 584 C407.76 584 398.52 584 389 584 C389 592.91 389 601.82 389 611 C279.11 611 169.22 611 56 611 C56 602.09 56 593.18 56 584 C46.76 584 37.52 584 28 584 C28 510.74 28 437.48 28 362 C18.76 362 9.52 362 0 362 C0 297.65 0 233.3 0 167 C9.24 167 18.48 167 28 167 C28 157.76 28 148.52 28 139 C110.5 139 193 139 278 139 C278 130.09 278 121.18 278 112 C213.98 112 149.96 112 84 112 C84 102.76 84 93.52 84 84 C47.04 84 10.08 84 -28 84 C-28 65.52 -28 47.04 -28 28 C-18.76 28 -9.52 28 0 28 C0 18.76 0 9.52 0 0 Z M334 139 C334 148.24 334 157.48 334 167 C342.91 167 351.82 167 361 167 C361 157.76 361 148.52 361 139 C352.09 139 343.18 139 334 139 Z " fill="#A0A0A0" transform="translate(28,0)"/>
<path d="M0 0 C55.11 0 110.22 0 167 0 C167 128.37 167 256.74 167 389 C111.89 389 56.78 389 0 389 C0 260.63 0 132.26 0 0 Z " fill="#A9A9A9" transform="translate(167,195)"/>
<path d="M0 0 C45.87 0 91.74 0 139 0 C139 9.24 139 18.48 139 28 C184.87 28 230.74 28 278 28 C278 37.24 278 46.48 278 56 C314.63 56 351.26 56 389 56 C389 74.48 389 92.96 389 112 C398.24 112 407.48 112 417 112 C417 130.15 417 148.3 417 167 C398.52 167 380.04 167 361 167 C361 157.76 361 148.52 361 139 C352.09 139 343.18 139 334 139 C334 148.24 334 157.48 334 167 C233.02 167 132.04 167 28 167 C28 157.76 28 148.52 28 139 C110.5 139 193 139 278 139 C278 130.09 278 121.18 278 112 C213.98 112 149.96 112 84 112 C84 102.76 84 93.52 84 84 C47.04 84 10.08 84 -28 84 C-28 65.52 -28 47.04 -28 28 C-18.76 28 -9.52 28 0 28 C0 18.76 0 9.52 0 0 Z " fill="#A4A4A4" transform="translate(28,0)"/>
<path d="M0 0 C27.39 0 54.78 0 83 0 C83 36.63 83 73.26 83 111 C74.09 111 65.18 111 56 111 C56 166.11 56 221.22 56 278 C46.76 278 37.52 278 28 278 C28 351.26 28 424.52 28 500 C18.76 500 9.52 500 0 500 C0 371.63 0 243.26 0 111 C-119.13 111 -238.26 111 -361 111 C-361 166.11 -361 221.22 -361 278 C-370.24 278 -379.48 278 -389 278 C-389 213.65 -389 149.3 -389 83 C-251.39 83 -113.78 83 28 83 C28 64.85 28 46.7 28 28 C18.76 28 9.52 28 0 28 C0 18.76 0 9.52 0 0 Z " fill="#4B4B4B" transform="translate(417,84)"/>
<path d="M0 0 C27.39 0 54.78 0 83 0 C83 128.37 83 256.74 83 389 C55.61 389 28.22 389 0 389 C0 260.63 0 132.26 0 0 Z " fill="#999999" transform="translate(334,195)"/>
<path d="M0 0 C27.39 0 54.78 0 83 0 C83 128.37 83 256.74 83 389 C55.61 389 28.22 389 0 389 C0 260.63 0 132.26 0 0 Z " fill="#A5A5A5" transform="translate(167,195)"/>
<path d="M0 0 C18.48 0 36.96 0 56 0 C56 73.26 56 146.52 56 222 C156.65 222 257.3 222 361 222 C361 230.91 361 239.82 361 249 C251.11 249 141.22 249 28 249 C28 240.09 28 231.18 28 222 C18.76 222 9.52 222 0 222 C0 148.74 0 75.48 0 0 Z " fill="#828282" transform="translate(56,362)"/>
<path d="M0 0 C9.24 0 18.48 0 28 0 C28 128.37 28 256.74 28 389 C18.76 389 9.52 389 0 389 C0 260.63 0 132.26 0 0 Z " fill="#DCDCDC" transform="translate(306,195)"/>
<path d="M0 0 C9.24 0 18.48 0 28 0 C28 128.37 28 256.74 28 389 C18.76 389 9.52 389 0 389 C0 260.63 0 132.26 0 0 Z " fill="#DCDCDC" transform="translate(167,195)"/>
<path d="M0 0 C8.91 0 17.82 0 27 0 C27 128.37 27 256.74 27 389 C18.09 389 9.18 389 0 389 C0 260.63 0 132.26 0 0 Z " fill="#C8C8C8" transform="translate(223,195)"/>
<path d="M0 0 C18.48 0 36.96 0 56 0 C56 55.11 56 110.22 56 167 C37.52 167 19.04 167 0 167 C0 111.89 0 56.78 0 0 Z " fill="#8C8C8C" transform="translate(56,195)"/>
<path d="M0 0 C9.24 0 18.48 0 28 0 C28 109.89 28 219.78 28 333 C18.76 333 9.52 333 0 333 C0 223.11 0 113.22 0 0 Z " fill="#5A5A5A" transform="translate(334,223)"/>
<path d="M0 0 C9.24 0 18.48 0 28 0 C28 109.89 28 219.78 28 333 C18.76 333 9.52 333 0 333 C0 223.11 0 113.22 0 0 Z " fill="#5A5A5A" transform="translate(250,223)"/>
<path d="M0 0 C9.24 0 18.48 0 28 0 C28 109.89 28 219.78 28 333 C18.76 333 9.52 333 0 333 C0 223.11 0 113.22 0 0 Z " fill="#5A5A5A" transform="translate(139,223)"/>
<path d="M0 0 C109.89 0 219.78 0 333 0 C333 8.91 333 17.82 333 27 C223.11 27 113.22 27 0 27 C0 18.09 0 9.18 0 0 Z " fill="#4B4B4B" transform="translate(84,584)"/>
<path d="M0 0 C100.98 0 201.96 0 306 0 C306 9.24 306 18.48 306 28 C205.02 28 104.04 28 0 28 C0 18.76 0 9.52 0 0 Z " fill="#DCDCDC" transform="translate(56,139)"/>
<path d="M0 0 C45.87 0 91.74 0 139 0 C139 9.24 139 18.48 139 28 C111.61 28 84.22 28 56 28 C56 37.24 56 46.48 56 56 C46.76 56 37.52 56 28 56 C28 65.24 28 74.48 28 84 C9.52 84 -8.96 84 -28 84 C-28 65.52 -28 47.04 -28 28 C-18.76 28 -9.52 28 0 28 C0 18.76 0 9.52 0 0 Z " fill="#A0A0A0" transform="translate(28,0)"/>
<path d="M0 0 C27.39 0 54.78 0 83 0 C83 9.24 83 18.48 83 28 C92.24 28 101.48 28 111 28 C111 37.24 111 46.48 111 56 C101.76 56 92.52 56 83 56 C83 65.24 83 74.48 83 84 C64.85 84 46.7 84 28 84 C28 74.76 28 65.52 28 56 C9.52 56 -8.96 56 -28 56 C-28 46.76 -28 37.52 -28 28 C-18.76 28 -9.52 28 0 28 C0 18.76 0 9.52 0 0 Z " fill="#A7A7A7" transform="translate(84,28)"/>
<path d="M0 0 C9.24 0 18.48 0 28 0 C28 73.26 28 146.52 28 222 C18.76 222 9.52 222 0 222 C0 148.74 0 75.48 0 0 Z " fill="#4B4B4B" transform="translate(56,362)"/>
<path d="M0 0 C9.24 0 18.48 0 28 0 C28 55.11 28 110.22 28 167 C18.76 167 9.52 167 0 167 C0 111.89 0 56.78 0 0 Z " fill="#646464" transform="translate(417,195)"/>
<path d="M0 0 C9.24 0 18.48 0 28 0 C28 55.11 28 110.22 28 167 C18.76 167 9.52 167 0 167 C0 111.89 0 56.78 0 0 Z " fill="#8C8C8C" transform="translate(389,195)"/>
<path d="M0 0 C9.24 0 18.48 0 28 0 C28 55.11 28 110.22 28 167 C18.76 167 9.52 167 0 167 C0 111.89 0 56.78 0 0 Z " fill="#828282" transform="translate(56,195)"/>
<path d="M0 0 C45.87 0 91.74 0 139 0 C139 9.24 139 18.48 139 28 C93.13 28 47.26 28 0 28 C0 18.76 0 9.52 0 0 Z " fill="#FFFFFF" transform="translate(223,139)"/>
<path d="M0 0 C45.87 0 91.74 0 139 0 C139 9.24 139 18.48 139 28 C93.13 28 47.26 28 0 28 C0 18.76 0 9.52 0 0 Z " fill="#4B4B4B" transform="translate(167,28)"/>
<path d="M0 0 C45.87 0 91.74 0 139 0 C139 9.24 139 18.48 139 28 C93.13 28 47.26 28 0 28 C0 18.76 0 9.52 0 0 Z " fill="#4B4B4B" transform="translate(28,0)"/>
<path d="M0 0 C36.63 0 73.26 0 111 0 C111 9.24 111 18.48 111 28 C74.37 28 37.74 28 0 28 C0 18.76 0 9.52 0 0 Z " fill="#4B4B4B" transform="translate(306,56)"/>
<path d="M0 0 C18.48 0 36.96 0 56 0 C56 18.15 56 36.3 56 55 C37.52 55 19.04 55 0 55 C0 36.85 0 18.7 0 0 Z " fill="#828282" transform="translate(389,112)"/>
<path d="M0 0 C27.39 0 54.78 0 83 0 C83 9.24 83 18.48 83 28 C55.61 28 28.22 28 0 28 C0 18.76 0 9.52 0 0 Z " fill="#DCDCDC" transform="translate(56,139)"/>
<path d="M0 0 C9.24 0 18.48 0 28 0 C28 18.48 28 36.96 28 56 C18.76 56 9.52 56 0 56 C0 37.52 0 19.04 0 0 Z " fill="#505050" transform="translate(334,500)"/>
<path d="M0 0 C9.24 0 18.48 0 28 0 C28 18.48 28 36.96 28 56 C18.76 56 9.52 56 0 56 C0 37.52 0 19.04 0 0 Z " fill="#505050" transform="translate(250,500)"/>
<path d="M0 0 C9.24 0 18.48 0 28 0 C28 18.48 28 36.96 28 56 C18.76 56 9.52 56 0 56 C0 37.52 0 19.04 0 0 Z " fill="#505050" transform="translate(139,500)"/>
<path d="M0 0 C18.48 0 36.96 0 56 0 C56 9.24 56 18.48 56 28 C37.52 28 19.04 28 0 28 C0 18.76 0 9.52 0 0 Z " fill="#FFFFFF" transform="translate(306,139)"/>
<path d="M0 0 C18.48 0 36.96 0 56 0 C56 9.24 56 18.48 56 28 C37.52 28 19.04 28 0 28 C0 18.76 0 9.52 0 0 Z " fill="#DCDCDC" transform="translate(56,56)"/>
<path d="M0 0 C9.24 0 18.48 0 28 0 C28 18.48 28 36.96 28 56 C18.76 56 9.52 56 0 56 C0 37.52 0 19.04 0 0 Z " fill="#4B4B4B" transform="translate(0,28)"/>
<path d="M0 0 C9.24 0 18.48 0 28 0 C28 18.15 28 36.3 28 55 C18.76 55 9.52 55 0 55 C0 36.85 0 18.7 0 0 Z " fill="#505050" transform="translate(334,223)"/>
<path d="M0 0 C9.24 0 18.48 0 28 0 C28 18.15 28 36.3 28 55 C18.76 55 9.52 55 0 55 C0 36.85 0 18.7 0 0 Z " fill="#505050" transform="translate(250,223)"/>
<path d="M0 0 C9.24 0 18.48 0 28 0 C28 18.15 28 36.3 28 55 C18.76 55 9.52 55 0 55 C0 36.85 0 18.7 0 0 Z " fill="#505050" transform="translate(139,223)"/>
<path d="M0 0 C9.24 0 18.48 0 28 0 C28 18.15 28 36.3 28 55 C18.76 55 9.52 55 0 55 C0 36.85 0 18.7 0 0 Z " fill="#646464" transform="translate(445,112)"/>
<path d="M0 0 C9.24 0 18.48 0 28 0 C28 18.15 28 36.3 28 55 C18.76 55 9.52 55 0 55 C0 36.85 0 18.7 0 0 Z " fill="#8C8C8C" transform="translate(389,112)"/>
<path d="M0 0 C9.24 0 18.48 0 28 0 C28 9.24 28 18.48 28 28 C18.76 28 9.52 28 0 28 C0 18.76 0 9.52 0 0 Z " fill="#AAAAAA" transform="translate(139,556)"/>
<path d="M0 0 C9.24 0 18.48 0 28 0 C28 9.24 28 18.48 28 28 C18.76 28 9.52 28 0 28 C0 18.76 0 9.52 0 0 Z " fill="#AAAAAA" transform="translate(139,195)"/>
<path d="M0 0 C9.24 0 18.48 0 28 0 C28 9.24 28 18.48 28 28 C18.76 28 9.52 28 0 28 C0 18.76 0 9.52 0 0 Z " fill="#DCDCDC" transform="translate(278,139)"/>
<path d="M0 0 C9.24 0 18.48 0 28 0 C28 9.24 28 18.48 28 28 C18.76 28 9.52 28 0 28 C0 18.76 0 9.52 0 0 Z " fill="#FFFFFF" transform="translate(56,139)"/>
<path d="M0 0 C9.24 0 18.48 0 28 0 C28 9.24 28 18.48 28 28 C18.76 28 9.52 28 0 28 C0 18.76 0 9.52 0 0 Z " fill="#DCDCDC" transform="translate(139,84)"/>
<path d="M0 0 C9.24 0 18.48 0 28 0 C28 9.24 28 18.48 28 28 C18.76 28 9.52 28 0 28 C0 18.76 0 9.52 0 0 Z " fill="#8C8C8C" transform="translate(278,56)"/>
<path d="M0 0 C9.24 0 18.48 0 28 0 C28 9.24 28 18.48 28 28 C18.76 28 9.52 28 0 28 C0 18.76 0 9.52 0 0 Z " fill="#A0A0A0" transform="translate(28,56)"/>
<path d="M0 0 C9.24 0 18.48 0 28 0 C28 9.24 28 18.48 28 28 C18.76 28 9.52 28 0 28 C0 18.76 0 9.52 0 0 Z " fill="#A0A0A0" transform="translate(139,28)"/>
<path d="M0 0 C9.24 0 18.48 0 28 0 C28 9.24 28 18.48 28 28 C18.76 28 9.52 28 0 28 C0 18.76 0 9.52 0 0 Z " fill="#8C8C8C" transform="translate(28,28)"/>
<path d="M0 0 C8.91 0 17.82 0 27 0 C27 9.24 27 18.48 27 28 C18.09 28 9.18 28 0 28 C0 18.76 0 9.52 0 0 Z " fill="#FFFFFF" transform="translate(112,139)"/>
</svg>
