<?xml version="1.0" encoding="UTF-8"?>
<svg version="1.1" xmlns="http://www.w3.org/2000/svg" width="500" height="611">
<path d="M0 0 C165 0 330 0 500 0 C500 36.63 500 73.26 500 111 C491.09 111 482.18 111 473 111 C473 175.35 473 239.7 473 306 C463.76 306 454.52 306 445 306 C445 379.26 445 452.52 445 528 C435.76 528 426.52 528 417 528 C417 536.91 417 545.82 417 555 C307.11 555 197.22 555 84 555 C84 546.09 84 537.18 84 528 C74.76 528 65.52 528 56 528 C56 454.74 56 381.48 56 306 C46.76 306 37.52 306 28 306 C28 241.65 28 177.3 28 111 C18.76 111 9.52 111 0 111 C0 74.37 0 37.74 0 0 Z " fill="#A0A0A0" transform="translate(0,55)"/>
<path d="M0 0 C165 0 330 0 500 0 C500 36.63 500 73.26 500 111 C491.09 111 482.18 111 473 111 C473 175.35 473 239.7 473 306 C463.76 306 454.52 306 445 306 C445 379.26 445 452.52 445 528 C435.76 528 426.52 528 417 528 C417 399.63 417 271.26 417 139 C297.87 139 178.74 139 56 139 C56 194.11 56 249.22 56 306 C46.76 306 37.52 306 28 306 C28 241.65 28 177.3 28 111 C18.76 111 9.52 111 0 111 C0 74.37 0 37.74 0 0 Z " fill="#4B4B4B" transform="translate(0,55)"/>
<path d="M0 0 C55.11 0 110.22 0 167 0 C167 128.37 167 256.74 167 389 C111.89 389 56.78 389 0 389 C0 260.63 0 132.26 0 0 Z " fill="#A9A9A9" transform="translate(167,194)"/>
<path d="M0 0 C137.61 0 275.22 0 417 0 C417 27.39 417 54.78 417 83 C279.39 83 141.78 83 0 83 C0 55.61 0 28.22 0 0 Z " fill="#A9A9A9" transform="translate(28,83)"/>
<path d="M0 0 C27.39 0 54.78 0 83 0 C83 128.37 83 256.74 83 389 C55.61 389 28.22 389 0 389 C0 260.63 0 132.26 0 0 Z " fill="#999999" transform="translate(334,194)"/>
<path d="M0 0 C27.39 0 54.78 0 83 0 C83 128.37 83 256.74 83 389 C55.61 389 28.22 389 0 389 C0 260.63 0 132.26 0 0 Z " fill="#A5A5A5" transform="translate(167,194)"/>
<path d="M0 0 C18.48 0 36.96 0 56 0 C56 73.26 56 146.52 56 222 C156.65 222 257.3 222 361 222 C361 230.91 361 239.82 361 249 C251.11 249 141.22 249 28 249 C28 240.09 28 231.18 28 222 C18.76 222 9.52 222 0 222 C0 148.74 0 75.48 0 0 Z " fill="#828282" transform="translate(56,361)"/>
<path d="M0 0 C9.24 0 18.48 0 28 0 C28 128.37 28 256.74 28 389 C18.76 389 9.52 389 0 389 C0 260.63 0 132.26 0 0 Z " fill="#DCDCDC" transform="translate(306,194)"/>
<path d="M0 0 C9.24 0 18.48 0 28 0 C28 128.37 28 256.74 28 389 C18.76 389 9.52 389 0 389 C0 260.63 0 132.26 0 0 Z " fill="#DCDCDC" transform="translate(167,194)"/>
<path d="M0 0 C8.91 0 17.82 0 27 0 C27 128.37 27 256.74 27 389 C18.09 389 9.18 389 0 389 C0 260.63 0 132.26 0 0 Z " fill="#C8C8C8" transform="translate(223,194)"/>
<path d="M0 0 C18.48 0 36.96 0 56 0 C56 55.11 56 110.22 56 167 C37.52 167 19.04 167 0 167 C0 111.89 0 56.78 0 0 Z " fill="#8C8C8C" transform="translate(56,194)"/>
<path d="M0 0 C9.24 0 18.48 0 28 0 C28 109.89 28 219.78 28 333 C18.76 333 9.52 333 0 333 C0 223.11 0 113.22 0 0 Z " fill="#5A5A5A" transform="translate(334,222)"/>
<path d="M0 0 C9.24 0 18.48 0 28 0 C28 109.89 28 219.78 28 333 C18.76 333 9.52 333 0 333 C0 223.11 0 113.22 0 0 Z " fill="#5A5A5A" transform="translate(250,222)"/>
<path d="M0 0 C9.24 0 18.48 0 28 0 C28 109.89 28 219.78 28 333 C18.76 333 9.52 333 0 333 C0 223.11 0 113.22 0 0 Z " fill="#5A5A5A" transform="translate(139,222)"/>
<path d="M0 0 C109.89 0 219.78 0 333 0 C333 8.91 333 17.82 333 27 C223.11 27 113.22 27 0 27 C0 18.09 0 9.18 0 0 Z " fill="#4B4B4B" transform="translate(84,583)"/>
<path d="M0 0 C9.24 0 18.48 0 28 0 C28 73.26 28 146.52 28 222 C18.76 222 9.52 222 0 222 C0 148.74 0 75.48 0 0 Z " fill="#4B4B4B" transform="translate(56,361)"/>
<path d="M0 0 C9.24 0 18.48 0 28 0 C28 55.11 28 110.22 28 167 C18.76 167 9.52 167 0 167 C0 111.89 0 56.78 0 0 Z " fill="#646464" transform="translate(417,194)"/>
<path d="M0 0 C9.24 0 18.48 0 28 0 C28 55.11 28 110.22 28 167 C18.76 167 9.52 167 0 167 C0 111.89 0 56.78 0 0 Z " fill="#8C8C8C" transform="translate(389,194)"/>
<path d="M0 0 C9.24 0 18.48 0 28 0 C28 55.11 28 110.22 28 167 C18.76 167 9.52 167 0 167 C0 111.89 0 56.78 0 0 Z " fill="#828282" transform="translate(56,194)"/>
<path d="M0 0 C18.48 0 36.96 0 56 0 C56 27.39 56 54.78 56 83 C37.52 83 19.04 83 0 83 C0 55.61 0 28.22 0 0 Z " fill="#828282" transform="translate(389,83)"/>
<path d="M0 0 C9.24 0 18.48 0 28 0 C28 27.39 28 54.78 28 83 C18.76 83 9.52 83 0 83 C0 55.61 0 28.22 0 0 Z " fill="#646464" transform="translate(445,83)"/>
<path d="M0 0 C9.24 0 18.48 0 28 0 C28 27.39 28 54.78 28 83 C18.76 83 9.52 83 0 83 C0 55.61 0 28.22 0 0 Z " fill="#8C8C8C" transform="translate(389,83)"/>
<path d="M0 0 C9.24 0 18.48 0 28 0 C28 27.39 28 54.78 28 83 C18.76 83 9.52 83 0 83 C0 55.61 0 28.22 0 0 Z " fill="#828282" transform="translate(28,83)"/>
<path d="M0 0 C9.24 0 18.48 0 28 0 C28 18.48 28 36.96 28 56 C18.76 56 9.52 56 0 56 C0 37.52 0 19.04 0 0 Z " fill="#505050" transform="translate(334,499)"/>
<path d="M0 0 C9.24 0 18.48 0 28 0 C28 18.48 28 36.96 28 56 C18.76 56 9.52 56 0 56 C0 37.52 0 19.04 0 0 Z " fill="#505050" transform="translate(250,499)"/>
<path d="M0 0 C9.24 0 18.48 0 28 0 C28 18.48 28 36.96 28 56 C18.76 56 9.52 56 0 56 C0 37.52 0 19.04 0 0 Z " fill="#505050" transform="translate(139,499)"/>
<path d="M0 0 C18.48 0 36.96 0 56 0 C56 9.24 56 18.48 56 28 C37.52 28 19.04 28 0 28 C0 18.76 0 9.52 0 0 Z " fill="#DCDCDC" transform="translate(56,111)"/>
<path d="M0 0 C9.24 0 18.48 0 28 0 C28 18.15 28 36.3 28 55 C18.76 55 9.52 55 0 55 C0 36.85 0 18.7 0 0 Z " fill="#505050" transform="translate(334,222)"/>
<path d="M0 0 C9.24 0 18.48 0 28 0 C28 18.15 28 36.3 28 55 C18.76 55 9.52 55 0 55 C0 36.85 0 18.7 0 0 Z " fill="#505050" transform="translate(250,222)"/>
<path d="M0 0 C9.24 0 18.48 0 28 0 C28 18.15 28 36.3 28 55 C18.76 55 9.52 55 0 55 C0 36.85 0 18.7 0 0 Z " fill="#505050" transform="translate(139,222)"/>
<path d="M0 0 C9.24 0 18.48 0 28 0 C28 9.24 28 18.48 28 28 C18.76 28 9.52 28 0 28 C0 18.76 0 9.52 0 0 Z " fill="#AAAAAA" transform="translate(139,555)"/>
<path d="M0 0 C9.24 0 18.48 0 28 0 C28 9.24 28 18.48 28 28 C18.76 28 9.52 28 0 28 C0 18.76 0 9.52 0 0 Z " fill="#AAAAAA" transform="translate(139,194)"/>
<path d="M0 0 C9.24 0 18.48 0 28 0 C28 9.24 28 18.48 28 28 C18.76 28 9.52 28 0 28 C0 18.76 0 9.52 0 0 Z " fill="#DCDCDC" transform="translate(139,111)"/>
</svg>
