<?xml version="1.0" encoding="UTF-8"?>
<svg version="1.1" xmlns="http://www.w3.org/2000/svg" width="500" height="500">
<path d="M0 0 C41.25 0 82.5 0 125 0 C125 5.28 125 10.56 125 16 C140.51 16 156.02 16 172 16 C172 21.28 172 26.56 172 32 C182.23 32 192.46 32 203 32 C203 36.95 203 41.9 203 47 C208.28 47 213.56 47 219 47 C219 52.28 219 57.56 219 63 C223.95 63 228.9 63 234 63 C234 68.28 234 73.56 234 79 C239.28 79 244.56 79 250 79 C250 83.95 250 88.9 250 94 C255.28 94 260.56 94 266 94 C266 99.28 266 104.56 266 110 C270.95 110 275.9 110 281 110 C281 120.23 281 130.46 281 141 C286.28 141 291.56 141 297 141 C297 151.23 297 161.46 297 172 C301.95 172 306.9 172 312 172 C312 228.76 312 285.52 312 344 C307.05 344 302.1 344 297 344 C297 354.23 297 364.46 297 375 C291.72 375 286.44 375 281 375 C281 380.28 281 385.56 281 391 C276.05 391 271.1 391 266 391 C266 396.28 266 401.56 266 407 C260.72 407 255.44 407 250 407 C250 411.95 250 416.9 250 422 C244.72 422 239.44 422 234 422 C234 427.28 234 432.56 234 438 C229.05 438 224.1 438 219 438 C219 443.28 219 448.56 219 454 C213.72 454 208.44 454 203 454 C203 458.95 203 463.9 203 469 C192.77 469 182.54 469 172 469 C172 474.28 172 479.56 172 485 C156.49 485 140.98 485 125 485 C125 489.95 125 494.9 125 500 C83.75 500 42.5 500 0 500 C0 495.05 0 490.1 0 485 C-15.51 485 -31.02 485 -47 485 C-47 479.72 -47 474.44 -47 469 C-57.23 469 -67.46 469 -78 469 C-78 464.05 -78 459.1 -78 454 C-83.28 454 -88.56 454 -94 454 C-94 448.72 -94 443.44 -94 438 C-98.95 438 -103.9 438 -109 438 C-109 432.72 -109 427.44 -109 422 C-114.28 422 -119.56 422 -125 422 C-125 417.05 -125 412.1 -125 407 C-130.28 407 -135.56 407 -141 407 C-141 401.72 -141 396.44 -141 391 C-145.95 391 -150.9 391 -156 391 C-156 385.72 -156 380.44 -156 375 C-161.28 375 -166.56 375 -172 375 C-172 364.77 -172 354.54 -172 344 C-177.28 344 -182.56 344 -188 344 C-188 287.24 -188 230.48 -188 172 C-182.72 172 -177.44 172 -172 172 C-172 161.77 -172 151.54 -172 141 C-166.72 141 -161.44 141 -156 141 C-156 130.77 -156 120.54 -156 110 C-151.05 110 -146.1 110 -141 110 C-141 104.72 -141 99.44 -141 94 C-135.72 94 -130.44 94 -125 94 C-125 89.05 -125 84.1 -125 79 C-119.72 79 -114.44 79 -109 79 C-109 73.72 -109 68.44 -109 63 C-104.05 63 -99.1 63 -94 63 C-94 57.72 -94 52.44 -94 47 C-88.72 47 -83.44 47 -78 47 C-78 42.05 -78 37.1 -78 32 C-67.77 32 -57.54 32 -47 32 C-47 26.72 -47 21.44 -47 16 C-31.49 16 -15.98 16 0 16 C0 10.72 0 5.44 0 0 Z " fill="#FFFFFF" transform="translate(188,0)"/>
<path d="M0 0 C5.28 0 10.56 0 16 0 C16 46.53 16 93.06 16 141 C21.28 141 26.56 141 32 141 C32 151.23 32 161.46 32 172 C36.95 172 41.9 172 47 172 C47 177.28 47 182.56 47 188 C52.28 188 57.56 188 63 188 C63 192.95 63 197.9 63 203 C68.28 203 73.56 203 79 203 C79 208.28 79 213.56 79 219 C83.95 219 88.9 219 94 219 C94 224.28 94 229.56 94 235 C99.28 235 104.56 235 110 235 C110 239.95 110 244.9 110 250 C120.23 250 130.46 250 141 250 C141 255.28 141 260.56 141 266 C156.51 266 172.02 266 188 266 C188 271.28 188 276.56 188 282 C229.25 282 270.5 282 313 282 C313 276.72 313 271.44 313 266 C328.51 266 344.02 266 360 266 C360 260.72 360 255.44 360 250 C370.23 250 380.46 250 391 250 C391 245.05 391 240.1 391 235 C396.28 235 401.56 235 407 235 C407 229.72 407 224.44 407 219 C411.95 219 416.9 219 422 219 C422 213.72 422 208.44 422 203 C427.28 203 432.56 203 438 203 C438 198.05 438 193.1 438 188 C443.28 188 448.56 188 454 188 C454 182.72 454 177.44 454 172 C458.95 172 463.9 172 469 172 C469 161.77 469 151.54 469 141 C474.28 141 479.56 141 485 141 C485 94.47 485 47.94 485 0 C489.95 0 494.9 0 500 0 C500 56.76 500 113.52 500 172 C495.05 172 490.1 172 485 172 C485 182.23 485 192.46 485 203 C479.72 203 474.44 203 469 203 C469 208.28 469 213.56 469 219 C464.05 219 459.1 219 454 219 C454 224.28 454 229.56 454 235 C448.72 235 443.44 235 438 235 C438 239.95 438 244.9 438 250 C432.72 250 427.44 250 422 250 C422 255.28 422 260.56 422 266 C417.05 266 412.1 266 407 266 C407 271.28 407 276.56 407 282 C401.72 282 396.44 282 391 282 C391 286.95 391 291.9 391 297 C380.77 297 370.54 297 360 297 C360 302.28 360 307.56 360 313 C344.49 313 328.98 313 313 313 C313 317.95 313 322.9 313 328 C271.75 328 230.5 328 188 328 C188 323.05 188 318.1 188 313 C172.49 313 156.98 313 141 313 C141 307.72 141 302.44 141 297 C130.77 297 120.54 297 110 297 C110 292.05 110 287.1 110 282 C104.72 282 99.44 282 94 282 C94 276.72 94 271.44 94 266 C89.05 266 84.1 266 79 266 C79 260.72 79 255.44 79 250 C73.72 250 68.44 250 63 250 C63 245.05 63 240.1 63 235 C57.72 235 52.44 235 47 235 C47 229.72 47 224.44 47 219 C42.05 219 37.1 219 32 219 C32 213.72 32 208.44 32 203 C26.72 203 21.44 203 16 203 C16 192.77 16 182.54 16 172 C10.72 172 5.44 172 0 172 C0 115.24 0 58.48 0 0 Z " fill="#787878" transform="translate(0,172)"/>
<path d="M0 0 C4.95 0 9.9 0 15 0 C15 56.76 15 113.52 15 172 C10.05 172 5.1 172 0 172 C0 182.23 0 192.46 0 203 C-5.28 203 -10.56 203 -16 203 C-16 208.28 -16 213.56 -16 219 C-20.95 219 -25.9 219 -31 219 C-31 224.28 -31 229.56 -31 235 C-36.28 235 -41.56 235 -47 235 C-47 239.95 -47 244.9 -47 250 C-52.28 250 -57.56 250 -63 250 C-63 255.28 -63 260.56 -63 266 C-67.95 266 -72.9 266 -78 266 C-78 271.28 -78 276.56 -78 282 C-83.28 282 -88.56 282 -94 282 C-94 286.95 -94 291.9 -94 297 C-104.23 297 -114.46 297 -125 297 C-125 281.49 -125 265.98 -125 250 C-114.77 250 -104.54 250 -94 250 C-94 245.05 -94 240.1 -94 235 C-88.72 235 -83.44 235 -78 235 C-78 229.72 -78 224.44 -78 219 C-73.05 219 -68.1 219 -63 219 C-63 213.72 -63 208.44 -63 203 C-57.72 203 -52.44 203 -47 203 C-47 198.05 -47 193.1 -47 188 C-41.72 188 -36.44 188 -31 188 C-31 182.72 -31 177.44 -31 172 C-26.05 172 -21.1 172 -16 172 C-16 161.77 -16 151.54 -16 141 C-10.72 141 -5.44 141 0 141 C0 94.47 0 47.94 0 0 Z " fill="#787878" transform="translate(485,172)"/>
<path d="M0 0 C41.25 0 82.5 0 125 0 C125 5.28 125 10.56 125 16 C140.51 16 156.02 16 172 16 C172 21.28 172 26.56 172 32 C182.23 32 192.46 32 203 32 C203 36.95 203 41.9 203 47 C177.26 47 151.52 47 125 47 C125 42.05 125 37.1 125 32 C83.75 32 42.5 32 0 32 C0 36.95 0 41.9 0 47 C-25.74 47 -51.48 47 -78 47 C-78 42.05 -78 37.1 -78 32 C-67.77 32 -57.54 32 -47 32 C-47 26.72 -47 21.44 -47 16 C-31.49 16 -15.98 16 0 16 C0 10.72 0 5.44 0 0 Z " fill="#DCDCDC" transform="translate(188,0)"/>
<path d="M0 0 C72.27 0 144.54 0 219 0 C219 5.28 219 10.56 219 16 C203.49 16 187.98 16 172 16 C172 20.95 172 25.9 172 31 C130.75 31 89.5 31 47 31 C47 26.05 47 21.1 47 16 C31.49 16 15.98 16 0 16 C0 10.72 0 5.44 0 0 Z " fill="#787878" transform="translate(141,469)"/>
<path d="M0 0 C15.51 0 31.02 0 47 0 C47 5.28 47 10.56 47 16 C88.25 16 129.5 16 172 16 C172 10.72 172 5.44 172 0 C187.51 0 203.02 0 219 0 C219 10.23 219 20.46 219 31 C146.73 31 74.46 31 0 31 C0 20.77 0 10.54 0 0 Z " fill="#8C8C8C" transform="translate(141,438)"/>
<path d="M0 0 C5.28 0 10.56 0 16 0 C16 46.53 16 93.06 16 141 C21.28 141 26.56 141 32 141 C32 161.46 32 181.92 32 203 C26.72 203 21.44 203 16 203 C16 192.77 16 182.54 16 172 C10.72 172 5.44 172 0 172 C0 115.24 0 58.48 0 0 Z " fill="#232323" transform="translate(0,172)"/>
<path d="M0 0 C4.95 0 9.9 0 15 0 C15 56.76 15 113.52 15 172 C10.05 172 5.1 172 0 172 C0 182.23 0 192.46 0 203 C-5.28 203 -10.56 203 -16 203 C-16 182.54 -16 162.08 -16 141 C-10.72 141 -5.44 141 0 141 C0 94.47 0 47.94 0 0 Z " fill="#232323" transform="translate(485,172)"/>
<path d="M0 0 C41.25 0 82.5 0 125 0 C125 5.28 125 10.56 125 16 C83.75 16 42.5 16 0 16 C0 10.72 0 5.44 0 0 Z " fill="#DCDCDC" transform="translate(188,438)"/>
<path d="M0 0 C41.25 0 82.5 0 125 0 C125 5.28 125 10.56 125 16 C83.75 16 42.5 16 0 16 C0 10.72 0 5.44 0 0 Z " fill="#232323" transform="translate(188,0)"/>
<path d="M0 0 C15.51 0 31.02 0 47 0 C47 5.28 47 10.56 47 16 C57.23 16 67.46 16 78 16 C78 20.95 78 25.9 78 31 C52.26 31 26.52 31 0 31 C0 20.77 0 10.54 0 0 Z " fill="#DCDCDC" transform="translate(313,16)"/>
<path d="M0 0 C15.51 0 31.02 0 47 0 C47 10.23 47 20.46 47 31 C21.26 31 -4.48 31 -31 31 C-31 26.05 -31 21.1 -31 16 C-20.77 16 -10.54 16 0 16 C0 10.72 0 5.44 0 0 Z " fill="#DCDCDC" transform="translate(141,16)"/>
<path d="M0 0 C41.25 0 82.5 0 125 0 C125 4.95 125 9.9 125 15 C83.75 15 42.5 15 0 15 C0 10.05 0 5.1 0 0 Z " fill="#232323" transform="translate(188,485)"/>
<path d="M0 0 C5.28 0 10.56 0 16 0 C16 4.95 16 9.9 16 15 C21.28 15 26.56 15 32 15 C32 20.28 32 25.56 32 31 C36.95 31 41.9 31 47 31 C47 41.23 47 51.46 47 62 C36.77 62 26.54 62 16 62 C16 51.77 16 41.54 16 31 C10.72 31 5.44 31 0 31 C0 20.77 0 10.54 0 0 Z " fill="#DCDCDC" transform="translate(422,79)"/>
<path d="M0 0 C5.28 0 10.56 0 16 0 C16 10.23 16 20.46 16 31 C10.72 31 5.44 31 0 31 C0 41.23 0 51.46 0 62 C-10.23 62 -20.46 62 -31 62 C-31 51.77 -31 41.54 -31 31 C-26.05 31 -21.1 31 -16 31 C-16 25.72 -16 20.44 -16 15 C-10.72 15 -5.44 15 0 15 C0 10.05 0 5.1 0 0 Z " fill="#DCDCDC" transform="translate(63,79)"/>
<path d="M0 0 C10.23 0 20.46 0 31 0 C31 5.28 31 10.56 31 16 C26.05 16 21.1 16 16 16 C16 21.28 16 26.56 16 32 C10.72 32 5.44 32 0 32 C0 36.95 0 41.9 0 47 C-10.23 47 -20.46 47 -31 47 C-31 42.05 -31 37.1 -31 32 C-26.05 32 -21.1 32 -16 32 C-16 26.72 -16 21.44 -16 16 C-10.72 16 -5.44 16 0 16 C0 10.72 0 5.44 0 0 Z " fill="#DCDCDC" transform="translate(391,375)"/>
<path d="M0 0 C15.51 0 31.02 0 47 0 C47 10.23 47 20.46 47 31 C31.49 31 15.98 31 0 31 C0 20.77 0 10.54 0 0 Z " fill="#8C8C8C" transform="translate(141,438)"/>
<path d="M0 0 C4.95 0 9.9 0 15 0 C15 15.51 15 31.02 15 47 C-0.51 47 -16.02 47 -32 47 C-32 41.72 -32 36.44 -32 31 C-26.72 31 -21.44 31 -16 31 C-16 26.05 -16 21.1 -16 16 C-10.72 16 -5.44 16 0 16 C0 10.72 0 5.44 0 0 Z " fill="#787878" transform="translate(454,344)"/>
<path d="M0 0 C4.95 0 9.9 0 15 0 C15 5.28 15 10.56 15 16 C20.28 16 25.56 16 31 16 C31 20.95 31 25.9 31 31 C36.28 31 41.56 31 47 31 C47 36.28 47 41.56 47 47 C31.49 47 15.98 47 0 47 C0 31.49 0 15.98 0 0 Z " fill="#787878" transform="translate(32,344)"/>
<path d="M0 0 C15.51 0 31.02 0 47 0 C47 5.28 47 10.56 47 16 C31.49 16 15.98 16 0 16 C0 10.72 0 5.44 0 0 Z " fill="#232323" transform="translate(313,469)"/>
<path d="M0 0 C15.51 0 31.02 0 47 0 C47 5.28 47 10.56 47 16 C31.49 16 15.98 16 0 16 C0 10.72 0 5.44 0 0 Z " fill="#232323" transform="translate(141,469)"/>
<path d="M0 0 C10.23 0 20.46 0 31 0 C31 5.28 31 10.56 31 16 C26.05 16 21.1 16 16 16 C16 21.28 16 26.56 16 32 C10.72 32 5.44 32 0 32 C0 21.44 0 10.88 0 0 Z " fill="#787878" transform="translate(391,422)"/>
<path d="M0 0 C15.51 0 31.02 0 47 0 C47 5.28 47 10.56 47 16 C31.49 16 15.98 16 0 16 C0 10.72 0 5.44 0 0 Z " fill="#DCDCDC" transform="translate(313,422)"/>
<path d="M0 0 C15.51 0 31.02 0 47 0 C47 5.28 47 10.56 47 16 C31.49 16 15.98 16 0 16 C0 10.72 0 5.44 0 0 Z " fill="#DCDCDC" transform="translate(141,422)"/>
<path d="M0 0 C10.23 0 20.46 0 31 0 C31 10.56 31 21.12 31 32 C25.72 32 20.44 32 15 32 C15 26.72 15 21.44 15 16 C10.05 16 5.1 16 0 16 C0 10.72 0 5.44 0 0 Z " fill="#787878" transform="translate(79,422)"/>
<path d="M0 0 C5.28 0 10.56 0 16 0 C16 4.95 16 9.9 16 15 C21.28 15 26.56 15 32 15 C32 20.28 32 25.56 32 31 C21.44 31 10.88 31 0 31 C0 20.77 0 10.54 0 0 Z " fill="#DCDCDC" transform="translate(422,79)"/>
<path d="M0 0 C5.28 0 10.56 0 16 0 C16 10.23 16 20.46 16 31 C5.44 31 -5.12 31 -16 31 C-16 25.72 -16 20.44 -16 15 C-10.72 15 -5.44 15 0 15 C0 10.05 0 5.1 0 0 Z " fill="#DCDCDC" transform="translate(63,79)"/>
<path d="M0 0 C5.28 0 10.56 0 16 0 C16 5.28 16 10.56 16 16 C20.95 16 25.9 16 31 16 C31 21.28 31 26.56 31 32 C20.77 32 10.54 32 0 32 C0 21.44 0 10.88 0 0 Z " fill="#DCDCDC" transform="translate(391,47)"/>
<path d="M0 0 C5.28 0 10.56 0 16 0 C16 10.56 16 21.12 16 32 C5.77 32 -4.46 32 -15 32 C-15 26.72 -15 21.44 -15 16 C-10.05 16 -5.1 16 0 16 C0 10.72 0 5.44 0 0 Z " fill="#DCDCDC" transform="translate(94,47)"/>
<path d="M0 0 C15.51 0 31.02 0 47 0 C47 5.28 47 10.56 47 16 C31.49 16 15.98 16 0 16 C0 10.72 0 5.44 0 0 Z " fill="#232323" transform="translate(313,16)"/>
<path d="M0 0 C15.51 0 31.02 0 47 0 C47 5.28 47 10.56 47 16 C31.49 16 15.98 16 0 16 C0 10.72 0 5.44 0 0 Z " fill="#232323" transform="translate(141,16)"/>
<path d="M0 0 C15.51 0 31.02 0 47 0 C47 4.95 47 9.9 47 15 C31.49 15 15.98 15 0 15 C0 10.05 0 5.1 0 0 Z " fill="#787878" transform="translate(313,454)"/>
<path d="M0 0 C15.51 0 31.02 0 47 0 C47 4.95 47 9.9 47 15 C31.49 15 15.98 15 0 15 C0 10.05 0 5.1 0 0 Z " fill="#787878" transform="translate(141,454)"/>
<path d="M0 0 C4.95 0 9.9 0 15 0 C15 10.23 15 20.46 15 31 C4.77 31 -5.46 31 -16 31 C-16 26.05 -16 21.1 -16 16 C-10.72 16 -5.44 16 0 16 C0 10.72 0 5.44 0 0 Z " fill="#8C8C8C" transform="translate(407,391)"/>
<path d="M0 0 C4.95 0 9.9 0 15 0 C15 5.28 15 10.56 15 16 C20.28 16 25.56 16 31 16 C31 20.95 31 25.9 31 31 C20.77 31 10.54 31 0 31 C0 20.77 0 10.54 0 0 Z " fill="#8C8C8C" transform="translate(79,391)"/>
<path d="M0 0 C4.95 0 9.9 0 15 0 C15 10.23 15 20.46 15 31 C4.77 31 -5.46 31 -16 31 C-16 26.05 -16 21.1 -16 16 C-10.72 16 -5.44 16 0 16 C0 10.72 0 5.44 0 0 Z " fill="#8C8C8C" transform="translate(454,344)"/>
<path d="M0 0 C4.95 0 9.9 0 15 0 C15 5.28 15 10.56 15 16 C20.28 16 25.56 16 31 16 C31 20.95 31 25.9 31 31 C20.77 31 10.54 31 0 31 C0 20.77 0 10.54 0 0 Z " fill="#8C8C8C" transform="translate(32,344)"/>
<path d="M0 0 C10.23 0 20.46 0 31 0 C31 5.28 31 10.56 31 16 C20.77 16 10.54 16 0 16 C0 10.72 0 5.44 0 0 Z " fill="#8C8C8C" transform="translate(360,422)"/>
<path d="M0 0 C10.23 0 20.46 0 31 0 C31 5.28 31 10.56 31 16 C20.77 16 10.54 16 0 16 C0 10.72 0 5.44 0 0 Z " fill="#8C8C8C" transform="translate(110,422)"/>
<path d="M0 0 C5.28 0 10.56 0 16 0 C16 10.23 16 20.46 16 31 C10.72 31 5.44 31 0 31 C0 20.77 0 10.54 0 0 Z " fill="#232323" transform="translate(469,344)"/>
<path d="M0 0 C5.28 0 10.56 0 16 0 C16 10.23 16 20.46 16 31 C10.72 31 5.44 31 0 31 C0 20.77 0 10.54 0 0 Z " fill="#232323" transform="translate(16,344)"/>
<path d="M0 0 C5.28 0 10.56 0 16 0 C16 10.23 16 20.46 16 31 C10.72 31 5.44 31 0 31 C0 20.77 0 10.54 0 0 Z " fill="#8C8C8C" transform="translate(469,313)"/>
<path d="M0 0 C5.28 0 10.56 0 16 0 C16 10.23 16 20.46 16 31 C10.72 31 5.44 31 0 31 C0 20.77 0 10.54 0 0 Z " fill="#8C8C8C" transform="translate(16,313)"/>
<path d="M0 0 C5.28 0 10.56 0 16 0 C16 10.23 16 20.46 16 31 C10.72 31 5.44 31 0 31 C0 20.77 0 10.54 0 0 Z " fill="#232323" transform="translate(469,141)"/>
<path d="M0 0 C5.28 0 10.56 0 16 0 C16 10.23 16 20.46 16 31 C10.72 31 5.44 31 0 31 C0 20.77 0 10.54 0 0 Z " fill="#232323" transform="translate(16,141)"/>
<path d="M0 0 C10.23 0 20.46 0 31 0 C31 5.28 31 10.56 31 16 C20.77 16 10.54 16 0 16 C0 10.72 0 5.44 0 0 Z " fill="#DCDCDC" transform="translate(360,47)"/>
<path d="M0 0 C10.23 0 20.46 0 31 0 C31 5.28 31 10.56 31 16 C20.77 16 10.54 16 0 16 C0 10.72 0 5.44 0 0 Z " fill="#DCDCDC" transform="translate(110,47)"/>
<path d="M0 0 C10.23 0 20.46 0 31 0 C31 4.95 31 9.9 31 15 C20.77 15 10.54 15 0 15 C0 10.05 0 5.1 0 0 Z " fill="#232323" transform="translate(360,454)"/>
<path d="M0 0 C10.23 0 20.46 0 31 0 C31 4.95 31 9.9 31 15 C20.77 15 10.54 15 0 15 C0 10.05 0 5.1 0 0 Z " fill="#232323" transform="translate(110,454)"/>
<path d="M0 0 C10.23 0 20.46 0 31 0 C31 4.95 31 9.9 31 15 C20.77 15 10.54 15 0 15 C0 10.05 0 5.1 0 0 Z " fill="#DCDCDC" transform="translate(110,407)"/>
<path d="M0 0 C4.95 0 9.9 0 15 0 C15 10.23 15 20.46 15 31 C10.05 31 5.1 31 0 31 C0 20.77 0 10.54 0 0 Z " fill="#232323" transform="translate(454,110)"/>
<path d="M0 0 C4.95 0 9.9 0 15 0 C15 10.23 15 20.46 15 31 C10.05 31 5.1 31 0 31 C0 20.77 0 10.54 0 0 Z " fill="#232323" transform="translate(32,110)"/>
<path d="M0 0 C10.23 0 20.46 0 31 0 C31 4.95 31 9.9 31 15 C20.77 15 10.54 15 0 15 C0 10.05 0 5.1 0 0 Z " fill="#232323" transform="translate(360,32)"/>
<path d="M0 0 C10.23 0 20.46 0 31 0 C31 4.95 31 9.9 31 15 C20.77 15 10.54 15 0 15 C0 10.05 0 5.1 0 0 Z " fill="#232323" transform="translate(110,32)"/>
<path d="M0 0 C5.28 0 10.56 0 16 0 C16 5.28 16 10.56 16 16 C10.72 16 5.44 16 0 16 C0 10.72 0 5.44 0 0 Z " fill="#232323" transform="translate(391,438)"/>
<path d="M0 0 C5.28 0 10.56 0 16 0 C16 5.28 16 10.56 16 16 C10.72 16 5.44 16 0 16 C0 10.72 0 5.44 0 0 Z " fill="#232323" transform="translate(94,438)"/>
<path d="M0 0 C5.28 0 10.56 0 16 0 C16 5.28 16 10.56 16 16 C10.72 16 5.44 16 0 16 C0 10.72 0 5.44 0 0 Z " fill="#232323" transform="translate(438,391)"/>
<path d="M0 0 C5.28 0 10.56 0 16 0 C16 5.28 16 10.56 16 16 C10.72 16 5.44 16 0 16 C0 10.72 0 5.44 0 0 Z " fill="#DCDCDC" transform="translate(94,391)"/>
<path d="M0 0 C5.28 0 10.56 0 16 0 C16 5.28 16 10.56 16 16 C10.72 16 5.44 16 0 16 C0 10.72 0 5.44 0 0 Z " fill="#232323" transform="translate(47,391)"/>
<path d="M0 0 C5.28 0 10.56 0 16 0 C16 5.28 16 10.56 16 16 C10.72 16 5.44 16 0 16 C0 10.72 0 5.44 0 0 Z " fill="#8C8C8C" transform="translate(422,375)"/>
<path d="M0 0 C5.28 0 10.56 0 16 0 C16 5.28 16 10.56 16 16 C10.72 16 5.44 16 0 16 C0 10.72 0 5.44 0 0 Z " fill="#8C8C8C" transform="translate(63,375)"/>
<path d="M0 0 C5.28 0 10.56 0 16 0 C16 5.28 16 10.56 16 16 C10.72 16 5.44 16 0 16 C0 10.72 0 5.44 0 0 Z " fill="#DCDCDC" transform="translate(47,344)"/>
<path d="M0 0 C5.28 0 10.56 0 16 0 C16 5.28 16 10.56 16 16 C10.72 16 5.44 16 0 16 C0 10.72 0 5.44 0 0 Z " fill="#DCDCDC" transform="translate(469,297)"/>
<path d="M0 0 C5.28 0 10.56 0 16 0 C16 5.28 16 10.56 16 16 C10.72 16 5.44 16 0 16 C0 10.72 0 5.44 0 0 Z " fill="#DCDCDC" transform="translate(16,297)"/>
<path d="M0 0 C5.28 0 10.56 0 16 0 C16 5.28 16 10.56 16 16 C10.72 16 5.44 16 0 16 C0 10.72 0 5.44 0 0 Z " fill="#DCDCDC" transform="translate(469,172)"/>
<path d="M0 0 C5.28 0 10.56 0 16 0 C16 5.28 16 10.56 16 16 C10.72 16 5.44 16 0 16 C0 10.72 0 5.44 0 0 Z " fill="#DCDCDC" transform="translate(16,172)"/>
<path d="M0 0 C5.28 0 10.56 0 16 0 C16 5.28 16 10.56 16 16 C10.72 16 5.44 16 0 16 C0 10.72 0 5.44 0 0 Z " fill="#232323" transform="translate(438,94)"/>
<path d="M0 0 C5.28 0 10.56 0 16 0 C16 5.28 16 10.56 16 16 C10.72 16 5.44 16 0 16 C0 10.72 0 5.44 0 0 Z " fill="#232323" transform="translate(47,94)"/>
<path d="M0 0 C5.28 0 10.56 0 16 0 C16 5.28 16 10.56 16 16 C10.72 16 5.44 16 0 16 C0 10.72 0 5.44 0 0 Z " fill="#232323" transform="translate(391,47)"/>
<path d="M0 0 C5.28 0 10.56 0 16 0 C16 5.28 16 10.56 16 16 C10.72 16 5.44 16 0 16 C0 10.72 0 5.44 0 0 Z " fill="#232323" transform="translate(94,47)"/>
<path d="M0 0 C4.95 0 9.9 0 15 0 C15 5.28 15 10.56 15 16 C10.05 16 5.1 16 0 16 C0 10.72 0 5.44 0 0 Z " fill="#232323" transform="translate(407,422)"/>
<path d="M0 0 C4.95 0 9.9 0 15 0 C15 5.28 15 10.56 15 16 C10.05 16 5.1 16 0 16 C0 10.72 0 5.44 0 0 Z " fill="#232323" transform="translate(79,422)"/>
<path d="M0 0 C5.28 0 10.56 0 16 0 C16 4.95 16 9.9 16 15 C10.72 15 5.44 15 0 15 C0 10.05 0 5.1 0 0 Z " fill="#232323" transform="translate(422,407)"/>
<path d="M0 0 C5.28 0 10.56 0 16 0 C16 4.95 16 9.9 16 15 C10.72 15 5.44 15 0 15 C0 10.05 0 5.1 0 0 Z " fill="#8C8C8C" transform="translate(391,407)"/>
<path d="M0 0 C5.28 0 10.56 0 16 0 C16 4.95 16 9.9 16 15 C10.72 15 5.44 15 0 15 C0 10.05 0 5.1 0 0 Z " fill="#8C8C8C" transform="translate(94,407)"/>
<path d="M0 0 C5.28 0 10.56 0 16 0 C16 4.95 16 9.9 16 15 C10.72 15 5.44 15 0 15 C0 10.05 0 5.1 0 0 Z " fill="#232323" transform="translate(63,407)"/>
<path d="M0 0 C4.95 0 9.9 0 15 0 C15 5.28 15 10.56 15 16 C10.05 16 5.1 16 0 16 C0 10.72 0 5.44 0 0 Z " fill="#232323" transform="translate(454,375)"/>
<path d="M0 0 C4.95 0 9.9 0 15 0 C15 5.28 15 10.56 15 16 C10.05 16 5.1 16 0 16 C0 10.72 0 5.44 0 0 Z " fill="#DCDCDC" transform="translate(79,375)"/>
<path d="M0 0 C4.95 0 9.9 0 15 0 C15 5.28 15 10.56 15 16 C10.05 16 5.1 16 0 16 C0 10.72 0 5.44 0 0 Z " fill="#232323" transform="translate(32,375)"/>
<path d="M0 0 C5.28 0 10.56 0 16 0 C16 4.95 16 9.9 16 15 C10.72 15 5.44 15 0 15 C0 10.05 0 5.1 0 0 Z " fill="#8C8C8C" transform="translate(438,360)"/>
<path d="M0 0 C5.28 0 10.56 0 16 0 C16 4.95 16 9.9 16 15 C10.72 15 5.44 15 0 15 C0 10.05 0 5.1 0 0 Z " fill="#DCDCDC" transform="translate(422,360)"/>
<path d="M0 0 C5.28 0 10.56 0 16 0 C16 4.95 16 9.9 16 15 C10.72 15 5.44 15 0 15 C0 10.05 0 5.1 0 0 Z " fill="#DCDCDC" transform="translate(63,360)"/>
<path d="M0 0 C5.28 0 10.56 0 16 0 C16 4.95 16 9.9 16 15 C10.72 15 5.44 15 0 15 C0 10.05 0 5.1 0 0 Z " fill="#8C8C8C" transform="translate(47,360)"/>
<path d="M0 0 C5.28 0 10.56 0 16 0 C16 4.95 16 9.9 16 15 C10.72 15 5.44 15 0 15 C0 10.05 0 5.1 0 0 Z " fill="#787878" transform="translate(469,329)"/>
<path d="M0 0 C5.28 0 10.56 0 16 0 C16 4.95 16 9.9 16 15 C10.72 15 5.44 15 0 15 C0 10.05 0 5.1 0 0 Z " fill="#787878" transform="translate(16,329)"/>
<path d="M0 0 C4.95 0 9.9 0 15 0 C15 5.28 15 10.56 15 16 C10.05 16 5.1 16 0 16 C0 10.72 0 5.44 0 0 Z " fill="#DCDCDC" transform="translate(454,141)"/>
<path d="M0 0 C4.95 0 9.9 0 15 0 C15 5.28 15 10.56 15 16 C10.05 16 5.1 16 0 16 C0 10.72 0 5.44 0 0 Z " fill="#DCDCDC" transform="translate(32,141)"/>
<path d="M0 0 C5.28 0 10.56 0 16 0 C16 4.95 16 9.9 16 15 C10.72 15 5.44 15 0 15 C0 10.05 0 5.1 0 0 Z " fill="#232323" transform="translate(422,79)"/>
<path d="M0 0 C5.28 0 10.56 0 16 0 C16 4.95 16 9.9 16 15 C10.72 15 5.44 15 0 15 C0 10.05 0 5.1 0 0 Z " fill="#232323" transform="translate(63,79)"/>
<path d="M0 0 C4.95 0 9.9 0 15 0 C15 5.28 15 10.56 15 16 C10.05 16 5.1 16 0 16 C0 10.72 0 5.44 0 0 Z " fill="#232323" transform="translate(407,63)"/>
<path d="M0 0 C4.95 0 9.9 0 15 0 C15 5.28 15 10.56 15 16 C10.05 16 5.1 16 0 16 C0 10.72 0 5.44 0 0 Z " fill="#232323" transform="translate(79,63)"/>
<path d="M0 0 C4.95 0 9.9 0 15 0 C15 4.95 15 9.9 15 15 C10.05 15 5.1 15 0 15 C0 10.05 0 5.1 0 0 Z " fill="#787878" transform="translate(407,407)"/>
<path d="M0 0 C4.95 0 9.9 0 15 0 C15 4.95 15 9.9 15 15 C10.05 15 5.1 15 0 15 C0 10.05 0 5.1 0 0 Z " fill="#787878" transform="translate(79,407)"/>
<path d="M0 0 C4.95 0 9.9 0 15 0 C15 4.95 15 9.9 15 15 C10.05 15 5.1 15 0 15 C0 10.05 0 5.1 0 0 Z " fill="#787878" transform="translate(454,360)"/>
<path d="M0 0 C4.95 0 9.9 0 15 0 C15 4.95 15 9.9 15 15 C10.05 15 5.1 15 0 15 C0 10.05 0 5.1 0 0 Z " fill="#787878" transform="translate(32,360)"/>
<path d="M0 0 C4.95 0 9.9 0 15 0 C15 4.95 15 9.9 15 15 C10.05 15 5.1 15 0 15 C0 10.05 0 5.1 0 0 Z " fill="#DCDCDC" transform="translate(454,329)"/>
<path d="M0 0 C4.95 0 9.9 0 15 0 C15 4.95 15 9.9 15 15 C10.05 15 5.1 15 0 15 C0 10.05 0 5.1 0 0 Z " fill="#DCDCDC" transform="translate(32,329)"/>
<path d="M0 0 C4.95 0 9.9 0 15 0 C15 4.95 15 9.9 15 15 C10.05 15 5.1 15 0 15 C0 10.05 0 5.1 0 0 Z " fill="#DCDCDC" transform="translate(407,79)"/>
<path d="M0 0 C4.95 0 9.9 0 15 0 C15 4.95 15 9.9 15 15 C10.05 15 5.1 15 0 15 C0 10.05 0 5.1 0 0 Z " fill="#DCDCDC" transform="translate(79,79)"/>
</svg>
