<?xml version="1.0" encoding="UTF-8"?>
<svg version="1.1" xmlns="http://www.w3.org/2000/svg" width="500" height="500">
<path d="M0 0 C41.25 0 82.5 0 125 0 C125 5.28 125 10.56 125 16 C140.51 16 156.02 16 172 16 C172 21.28 172 26.56 172 32 C182.23 32 192.46 32 203 32 C203 36.95 203 41.9 203 47 C208.28 47 213.56 47 219 47 C219 52.28 219 57.56 219 63 C223.95 63 228.9 63 234 63 C234 68.28 234 73.56 234 79 C239.28 79 244.56 79 250 79 C250 83.95 250 88.9 250 94 C255.28 94 260.56 94 266 94 C266 99.28 266 104.56 266 110 C270.95 110 275.9 110 281 110 C281 120.23 281 130.46 281 141 C286.28 141 291.56 141 297 141 C297 151.23 297 161.46 297 172 C301.95 172 306.9 172 312 172 C312 223.48 312 274.96 312 328 C307.05 328 302.1 328 297 328 C297 338.56 297 349.12 297 360 C291.72 360 286.44 360 281 360 C281 364.95 281 369.9 281 375 C276.05 375 271.1 375 266 375 C266 380.28 266 385.56 266 391 C260.72 391 255.44 391 250 391 C250 395.95 250 400.9 250 406 C244.72 406 239.44 406 234 406 C234 411.28 234 416.56 234 422 C229.05 422 224.1 422 219 422 C219 427.28 219 432.56 219 438 C213.72 438 208.44 438 203 438 C203 442.95 203 447.9 203 453 C192.77 453 182.54 453 172 453 C172 458.28 172 463.56 172 469 C156.49 469 140.98 469 125 469 C125 473.95 125 478.9 125 484 C83.75 484 42.5 484 0 484 C0 479.05 0 474.1 0 469 C-15.51 469 -31.02 469 -47 469 C-47 463.72 -47 458.44 -47 453 C-57.23 453 -67.46 453 -78 453 C-78 448.05 -78 443.1 -78 438 C-83.28 438 -88.56 438 -94 438 C-94 432.72 -94 427.44 -94 422 C-98.95 422 -103.9 422 -109 422 C-109 416.72 -109 411.44 -109 406 C-114.28 406 -119.56 406 -125 406 C-125 401.05 -125 396.1 -125 391 C-130.28 391 -135.56 391 -141 391 C-141 385.72 -141 380.44 -141 375 C-145.95 375 -150.9 375 -156 375 C-156 370.05 -156 365.1 -156 360 C-161.28 360 -166.56 360 -172 360 C-172 349.44 -172 338.88 -172 328 C-177.28 328 -182.56 328 -188 328 C-188 276.52 -188 225.04 -188 172 C-182.72 172 -177.44 172 -172 172 C-172 161.77 -172 151.54 -172 141 C-166.72 141 -161.44 141 -156 141 C-156 130.77 -156 120.54 -156 110 C-151.05 110 -146.1 110 -141 110 C-141 104.72 -141 99.44 -141 94 C-135.72 94 -130.44 94 -125 94 C-125 89.05 -125 84.1 -125 79 C-119.72 79 -114.44 79 -109 79 C-109 73.72 -109 68.44 -109 63 C-104.05 63 -99.1 63 -94 63 C-94 57.72 -94 52.44 -94 47 C-88.72 47 -83.44 47 -78 47 C-78 42.05 -78 37.1 -78 32 C-67.77 32 -57.54 32 -47 32 C-47 26.72 -47 21.44 -47 16 C-31.49 16 -15.98 16 0 16 C0 10.72 0 5.44 0 0 Z " fill="#FFFFFF" transform="translate(188,15)"/>
<path d="M0 0 C10.23 0 20.46 0 31 0 C31 5.28 31 10.56 31 16 C41.23 16 51.46 16 62 16 C62 21.28 62 26.56 62 32 C77.51 32 93.02 32 109 32 C109 36.95 109 41.9 109 47 C150.25 47 191.5 47 234 47 C234 42.05 234 37.1 234 32 C249.51 32 265.02 32 281 32 C281 26.72 281 21.44 281 16 C291.23 16 301.46 16 312 16 C312 10.72 312 5.44 312 0 C322.23 0 332.46 0 343 0 C343 5.28 343 10.56 343 16 C338.05 16 333.1 16 328 16 C328 21.28 328 26.56 328 32 C322.72 32 317.44 32 312 32 C312 36.95 312 41.9 312 47 C301.77 47 291.54 47 281 47 C281 52.28 281 57.56 281 63 C265.49 63 249.98 63 234 63 C234 67.95 234 72.9 234 78 C192.75 78 151.5 78 109 78 C109 73.05 109 68.1 109 63 C93.49 63 77.98 63 62 63 C62 57.72 62 52.44 62 47 C51.77 47 41.54 47 31 47 C31 42.05 31 37.1 31 32 C25.72 32 20.44 32 15 32 C15 26.72 15 21.44 15 16 C10.05 16 5.1 16 0 16 C0 10.72 0 5.44 0 0 Z " fill="#8C8C8C" transform="translate(79,421)"/>
<path d="M0 0 C41.25 0 82.5 0 125 0 C125 5.28 125 10.56 125 16 C140.51 16 156.02 16 172 16 C172 21.28 172 26.56 172 32 C182.23 32 192.46 32 203 32 C203 36.95 203 41.9 203 47 C177.26 47 151.52 47 125 47 C125 42.05 125 37.1 125 32 C83.75 32 42.5 32 0 32 C0 36.95 0 41.9 0 47 C-25.74 47 -51.48 47 -78 47 C-78 42.05 -78 37.1 -78 32 C-67.77 32 -57.54 32 -47 32 C-47 26.72 -47 21.44 -47 16 C-31.49 16 -15.98 16 0 16 C0 10.72 0 5.44 0 0 Z " fill="#DCDCDC" transform="translate(188,15)"/>
<path d="M0 0 C10.23 0 20.46 0 31 0 C31 5.28 31 10.56 31 16 C41.23 16 51.46 16 62 16 C62 21.28 62 26.56 62 32 C77.51 32 93.02 32 109 32 C109 42.23 109 52.46 109 63 C93.49 63 77.98 63 62 63 C62 57.72 62 52.44 62 47 C51.77 47 41.54 47 31 47 C31 42.05 31 37.1 31 32 C25.72 32 20.44 32 15 32 C15 26.72 15 21.44 15 16 C10.05 16 5.1 16 0 16 C0 10.72 0 5.44 0 0 Z " fill="#8C8C8C" transform="translate(79,421)"/>
<path d="M0 0 C5.28 0 10.56 0 16 0 C16 51.48 16 102.96 16 156 C10.72 156 5.44 156 0 156 C0 104.52 0 53.04 0 0 Z " fill="#232323" transform="translate(0,187)"/>
<path d="M0 0 C4.95 0 9.9 0 15 0 C15 51.48 15 102.96 15 156 C10.05 156 5.1 156 0 156 C0 104.52 0 53.04 0 0 Z " fill="#232323" transform="translate(485,187)"/>
<path d="M0 0 C41.25 0 82.5 0 125 0 C125 5.28 125 10.56 125 16 C83.75 16 42.5 16 0 16 C0 10.72 0 5.44 0 0 Z " fill="#232323" transform="translate(188,15)"/>
<path d="M0 0 C5.28 0 10.56 0 16 0 C16 10.56 16 21.12 16 32 C10.72 32 5.44 32 0 32 C0 36.95 0 41.9 0 47 C-4.95 47 -9.9 47 -15 47 C-15 52.28 -15 57.56 -15 63 C-20.28 63 -25.56 63 -31 63 C-31 67.95 -31 72.9 -31 78 C-36.28 78 -41.56 78 -47 78 C-47 67.77 -47 57.54 -47 47 C-41.72 47 -36.44 47 -31 47 C-31 42.05 -31 37.1 -31 32 C-25.72 32 -20.44 32 -15 32 C-15 26.72 -15 21.44 -15 16 C-10.05 16 -5.1 16 0 16 C0 10.72 0 5.44 0 0 Z " fill="#8C8C8C" transform="translate(469,343)"/>
<path d="M0 0 C5.28 0 10.56 0 16 0 C16 5.28 16 10.56 16 16 C20.95 16 25.9 16 31 16 C31 21.28 31 26.56 31 32 C36.28 32 41.56 32 47 32 C47 36.95 47 41.9 47 47 C52.28 47 57.56 47 63 47 C63 57.23 63 67.46 63 78 C57.72 78 52.44 78 47 78 C47 73.05 47 68.1 47 63 C41.72 63 36.44 63 31 63 C31 57.72 31 52.44 31 47 C26.05 47 21.1 47 16 47 C16 42.05 16 37.1 16 32 C10.72 32 5.44 32 0 32 C0 21.44 0 10.88 0 0 Z " fill="#8C8C8C" transform="translate(16,343)"/>
<path d="M0 0 C15.51 0 31.02 0 47 0 C47 5.28 47 10.56 47 16 C57.23 16 67.46 16 78 16 C78 20.95 78 25.9 78 31 C52.26 31 26.52 31 0 31 C0 20.77 0 10.54 0 0 Z " fill="#DCDCDC" transform="translate(313,31)"/>
<path d="M0 0 C15.51 0 31.02 0 47 0 C47 10.23 47 20.46 47 31 C21.26 31 -4.48 31 -31 31 C-31 26.05 -31 21.1 -31 16 C-20.77 16 -10.54 16 0 16 C0 10.72 0 5.44 0 0 Z " fill="#DCDCDC" transform="translate(141,31)"/>
<path d="M0 0 C41.25 0 82.5 0 125 0 C125 4.95 125 9.9 125 15 C83.75 15 42.5 15 0 15 C0 10.05 0 5.1 0 0 Z " fill="#232323" transform="translate(188,484)"/>
<path d="M0 0 C41.25 0 82.5 0 125 0 C125 4.95 125 9.9 125 15 C83.75 15 42.5 15 0 15 C0 10.05 0 5.1 0 0 Z " fill="#DCDCDC" transform="translate(188,453)"/>
<path d="M0 0 C5.28 0 10.56 0 16 0 C16 4.95 16 9.9 16 15 C21.28 15 26.56 15 32 15 C32 20.28 32 25.56 32 31 C36.95 31 41.9 31 47 31 C47 41.23 47 51.46 47 62 C36.77 62 26.54 62 16 62 C16 51.77 16 41.54 16 31 C10.72 31 5.44 31 0 31 C0 20.77 0 10.54 0 0 Z " fill="#DCDCDC" transform="translate(422,94)"/>
<path d="M0 0 C5.28 0 10.56 0 16 0 C16 10.23 16 20.46 16 31 C10.72 31 5.44 31 0 31 C0 41.23 0 51.46 0 62 C-10.23 62 -20.46 62 -31 62 C-31 51.77 -31 41.54 -31 31 C-26.05 31 -21.1 31 -16 31 C-16 25.72 -16 20.44 -16 15 C-10.72 15 -5.44 15 0 15 C0 10.05 0 5.1 0 0 Z " fill="#DCDCDC" transform="translate(63,94)"/>
<path d="M0 0 C15.51 0 31.02 0 47 0 C47 5.28 47 10.56 47 16 C31.49 16 15.98 16 0 16 C0 10.72 0 5.44 0 0 Z " fill="#232323" transform="translate(313,468)"/>
<path d="M0 0 C15.51 0 31.02 0 47 0 C47 5.28 47 10.56 47 16 C31.49 16 15.98 16 0 16 C0 10.72 0 5.44 0 0 Z " fill="#232323" transform="translate(141,468)"/>
<path d="M0 0 C15.51 0 31.02 0 47 0 C47 5.28 47 10.56 47 16 C31.49 16 15.98 16 0 16 C0 10.72 0 5.44 0 0 Z " fill="#DCDCDC" transform="translate(313,437)"/>
<path d="M0 0 C15.51 0 31.02 0 47 0 C47 5.28 47 10.56 47 16 C31.49 16 15.98 16 0 16 C0 10.72 0 5.44 0 0 Z " fill="#DCDCDC" transform="translate(141,437)"/>
<path d="M0 0 C10.23 0 20.46 0 31 0 C31 5.28 31 10.56 31 16 C26.05 16 21.1 16 16 16 C16 21.28 16 26.56 16 32 C10.72 32 5.44 32 0 32 C0 21.44 0 10.88 0 0 Z " fill="#8C8C8C" transform="translate(391,421)"/>
<path d="M0 0 C10.23 0 20.46 0 31 0 C31 10.56 31 21.12 31 32 C25.72 32 20.44 32 15 32 C15 26.72 15 21.44 15 16 C10.05 16 5.1 16 0 16 C0 10.72 0 5.44 0 0 Z " fill="#8C8C8C" transform="translate(79,421)"/>
<path d="M0 0 C10.56 0 21.12 0 32 0 C32 5.28 32 10.56 32 16 C26.72 16 21.44 16 16 16 C16 20.95 16 25.9 16 31 C10.72 31 5.44 31 0 31 C0 20.77 0 10.54 0 0 Z " fill="#8C8C8C" transform="translate(422,390)"/>
<path d="M0 0 C10.56 0 21.12 0 32 0 C32 10.23 32 20.46 32 31 C26.72 31 21.44 31 16 31 C16 26.05 16 21.1 16 16 C10.72 16 5.44 16 0 16 C0 10.72 0 5.44 0 0 Z " fill="#8C8C8C" transform="translate(47,390)"/>
<path d="M0 0 C5.28 0 10.56 0 16 0 C16 4.95 16 9.9 16 15 C21.28 15 26.56 15 32 15 C32 20.28 32 25.56 32 31 C21.44 31 10.88 31 0 31 C0 20.77 0 10.54 0 0 Z " fill="#DCDCDC" transform="translate(422,94)"/>
<path d="M0 0 C5.28 0 10.56 0 16 0 C16 10.23 16 20.46 16 31 C5.44 31 -5.12 31 -16 31 C-16 25.72 -16 20.44 -16 15 C-10.72 15 -5.44 15 0 15 C0 10.05 0 5.1 0 0 Z " fill="#DCDCDC" transform="translate(63,94)"/>
<path d="M0 0 C5.28 0 10.56 0 16 0 C16 5.28 16 10.56 16 16 C20.95 16 25.9 16 31 16 C31 21.28 31 26.56 31 32 C20.77 32 10.54 32 0 32 C0 21.44 0 10.88 0 0 Z " fill="#DCDCDC" transform="translate(391,62)"/>
<path d="M0 0 C5.28 0 10.56 0 16 0 C16 10.56 16 21.12 16 32 C5.77 32 -4.46 32 -15 32 C-15 26.72 -15 21.44 -15 16 C-10.05 16 -5.1 16 0 16 C0 10.72 0 5.44 0 0 Z " fill="#DCDCDC" transform="translate(94,62)"/>
<path d="M0 0 C15.51 0 31.02 0 47 0 C47 5.28 47 10.56 47 16 C31.49 16 15.98 16 0 16 C0 10.72 0 5.44 0 0 Z " fill="#232323" transform="translate(313,31)"/>
<path d="M0 0 C15.51 0 31.02 0 47 0 C47 5.28 47 10.56 47 16 C31.49 16 15.98 16 0 16 C0 10.72 0 5.44 0 0 Z " fill="#232323" transform="translate(141,31)"/>
<path d="M0 0 C15.51 0 31.02 0 47 0 C47 4.95 47 9.9 47 15 C31.49 15 15.98 15 0 15 C0 10.05 0 5.1 0 0 Z " fill="#8C8C8C" transform="translate(313,453)"/>
<path d="M0 0 C15.51 0 31.02 0 47 0 C47 4.95 47 9.9 47 15 C31.49 15 15.98 15 0 15 C0 10.05 0 5.1 0 0 Z " fill="#8C8C8C" transform="translate(141,453)"/>
<path d="M0 0 C5.28 0 10.56 0 16 0 C16 10.56 16 21.12 16 32 C10.72 32 5.44 32 0 32 C0 21.44 0 10.88 0 0 Z " fill="#232323" transform="translate(469,343)"/>
<path d="M0 0 C5.28 0 10.56 0 16 0 C16 10.56 16 21.12 16 32 C10.72 32 5.44 32 0 32 C0 21.44 0 10.88 0 0 Z " fill="#232323" transform="translate(16,343)"/>
<path d="M0 0 C10.23 0 20.46 0 31 0 C31 5.28 31 10.56 31 16 C20.77 16 10.54 16 0 16 C0 10.72 0 5.44 0 0 Z " fill="#DCDCDC" transform="translate(360,421)"/>
<path d="M0 0 C10.23 0 20.46 0 31 0 C31 5.28 31 10.56 31 16 C20.77 16 10.54 16 0 16 C0 10.72 0 5.44 0 0 Z " fill="#DCDCDC" transform="translate(110,421)"/>
<path d="M0 0 C5.28 0 10.56 0 16 0 C16 10.23 16 20.46 16 31 C10.72 31 5.44 31 0 31 C0 20.77 0 10.54 0 0 Z " fill="#DCDCDC" transform="translate(469,312)"/>
<path d="M0 0 C5.28 0 10.56 0 16 0 C16 10.23 16 20.46 16 31 C10.72 31 5.44 31 0 31 C0 20.77 0 10.54 0 0 Z " fill="#DCDCDC" transform="translate(16,312)"/>
<path d="M0 0 C5.28 0 10.56 0 16 0 C16 10.23 16 20.46 16 31 C10.72 31 5.44 31 0 31 C0 20.77 0 10.54 0 0 Z " fill="#232323" transform="translate(469,156)"/>
<path d="M0 0 C5.28 0 10.56 0 16 0 C16 10.23 16 20.46 16 31 C10.72 31 5.44 31 0 31 C0 20.77 0 10.54 0 0 Z " fill="#232323" transform="translate(16,156)"/>
<path d="M0 0 C10.23 0 20.46 0 31 0 C31 5.28 31 10.56 31 16 C20.77 16 10.54 16 0 16 C0 10.72 0 5.44 0 0 Z " fill="#DCDCDC" transform="translate(360,62)"/>
<path d="M0 0 C10.23 0 20.46 0 31 0 C31 5.28 31 10.56 31 16 C20.77 16 10.54 16 0 16 C0 10.72 0 5.44 0 0 Z " fill="#DCDCDC" transform="translate(110,62)"/>
<path d="M0 0 C10.23 0 20.46 0 31 0 C31 4.95 31 9.9 31 15 C20.77 15 10.54 15 0 15 C0 10.05 0 5.1 0 0 Z " fill="#232323" transform="translate(360,453)"/>
<path d="M0 0 C10.23 0 20.46 0 31 0 C31 4.95 31 9.9 31 15 C20.77 15 10.54 15 0 15 C0 10.05 0 5.1 0 0 Z " fill="#232323" transform="translate(110,453)"/>
<path d="M0 0 C4.95 0 9.9 0 15 0 C15 10.23 15 20.46 15 31 C10.05 31 5.1 31 0 31 C0 20.77 0 10.54 0 0 Z " fill="#DCDCDC" transform="translate(407,390)"/>
<path d="M0 0 C4.95 0 9.9 0 15 0 C15 10.23 15 20.46 15 31 C10.05 31 5.1 31 0 31 C0 20.77 0 10.54 0 0 Z " fill="#DCDCDC" transform="translate(79,390)"/>
<path d="M0 0 C4.95 0 9.9 0 15 0 C15 10.23 15 20.46 15 31 C10.05 31 5.1 31 0 31 C0 20.77 0 10.54 0 0 Z " fill="#232323" transform="translate(454,125)"/>
<path d="M0 0 C4.95 0 9.9 0 15 0 C15 10.23 15 20.46 15 31 C10.05 31 5.1 31 0 31 C0 20.77 0 10.54 0 0 Z " fill="#232323" transform="translate(32,125)"/>
<path d="M0 0 C10.23 0 20.46 0 31 0 C31 4.95 31 9.9 31 15 C20.77 15 10.54 15 0 15 C0 10.05 0 5.1 0 0 Z " fill="#232323" transform="translate(360,47)"/>
<path d="M0 0 C10.23 0 20.46 0 31 0 C31 4.95 31 9.9 31 15 C20.77 15 10.54 15 0 15 C0 10.05 0 5.1 0 0 Z " fill="#232323" transform="translate(110,47)"/>
<path d="M0 0 C5.28 0 10.56 0 16 0 C16 5.28 16 10.56 16 16 C10.72 16 5.44 16 0 16 C0 10.72 0 5.44 0 0 Z " fill="#232323" transform="translate(391,437)"/>
<path d="M0 0 C5.28 0 10.56 0 16 0 C16 5.28 16 10.56 16 16 C10.72 16 5.44 16 0 16 C0 10.72 0 5.44 0 0 Z " fill="#232323" transform="translate(94,437)"/>
<path d="M0 0 C5.28 0 10.56 0 16 0 C16 5.28 16 10.56 16 16 C10.72 16 5.44 16 0 16 C0 10.72 0 5.44 0 0 Z " fill="#232323" transform="translate(438,390)"/>
<path d="M0 0 C5.28 0 10.56 0 16 0 C16 5.28 16 10.56 16 16 C10.72 16 5.44 16 0 16 C0 10.72 0 5.44 0 0 Z " fill="#232323" transform="translate(47,390)"/>
<path d="M0 0 C5.28 0 10.56 0 16 0 C16 5.28 16 10.56 16 16 C10.72 16 5.44 16 0 16 C0 10.72 0 5.44 0 0 Z " fill="#DCDCDC" transform="translate(47,359)"/>
<path d="M0 0 C5.28 0 10.56 0 16 0 C16 5.28 16 10.56 16 16 C10.72 16 5.44 16 0 16 C0 10.72 0 5.44 0 0 Z " fill="#DCDCDC" transform="translate(469,187)"/>
<path d="M0 0 C5.28 0 10.56 0 16 0 C16 5.28 16 10.56 16 16 C10.72 16 5.44 16 0 16 C0 10.72 0 5.44 0 0 Z " fill="#DCDCDC" transform="translate(16,187)"/>
<path d="M0 0 C5.28 0 10.56 0 16 0 C16 5.28 16 10.56 16 16 C10.72 16 5.44 16 0 16 C0 10.72 0 5.44 0 0 Z " fill="#232323" transform="translate(438,109)"/>
<path d="M0 0 C5.28 0 10.56 0 16 0 C16 5.28 16 10.56 16 16 C10.72 16 5.44 16 0 16 C0 10.72 0 5.44 0 0 Z " fill="#232323" transform="translate(47,109)"/>
<path d="M0 0 C5.28 0 10.56 0 16 0 C16 5.28 16 10.56 16 16 C10.72 16 5.44 16 0 16 C0 10.72 0 5.44 0 0 Z " fill="#232323" transform="translate(391,62)"/>
<path d="M0 0 C5.28 0 10.56 0 16 0 C16 5.28 16 10.56 16 16 C10.72 16 5.44 16 0 16 C0 10.72 0 5.44 0 0 Z " fill="#232323" transform="translate(94,62)"/>
<path d="M0 0 C4.95 0 9.9 0 15 0 C15 5.28 15 10.56 15 16 C10.05 16 5.1 16 0 16 C0 10.72 0 5.44 0 0 Z " fill="#232323" transform="translate(407,421)"/>
<path d="M0 0 C4.95 0 9.9 0 15 0 C15 5.28 15 10.56 15 16 C10.05 16 5.1 16 0 16 C0 10.72 0 5.44 0 0 Z " fill="#232323" transform="translate(79,421)"/>
<path d="M0 0 C5.28 0 10.56 0 16 0 C16 4.95 16 9.9 16 15 C10.72 15 5.44 15 0 15 C0 10.05 0 5.1 0 0 Z " fill="#232323" transform="translate(422,406)"/>
<path d="M0 0 C5.28 0 10.56 0 16 0 C16 4.95 16 9.9 16 15 C10.72 15 5.44 15 0 15 C0 10.05 0 5.1 0 0 Z " fill="#DCDCDC" transform="translate(391,406)"/>
<path d="M0 0 C5.28 0 10.56 0 16 0 C16 4.95 16 9.9 16 15 C10.72 15 5.44 15 0 15 C0 10.05 0 5.1 0 0 Z " fill="#DCDCDC" transform="translate(94,406)"/>
<path d="M0 0 C5.28 0 10.56 0 16 0 C16 4.95 16 9.9 16 15 C10.72 15 5.44 15 0 15 C0 10.05 0 5.1 0 0 Z " fill="#232323" transform="translate(63,406)"/>
<path d="M0 0 C5.28 0 10.56 0 16 0 C16 4.95 16 9.9 16 15 C10.72 15 5.44 15 0 15 C0 10.05 0 5.1 0 0 Z " fill="#8C8C8C" transform="translate(438,375)"/>
<path d="M0 0 C5.28 0 10.56 0 16 0 C16 4.95 16 9.9 16 15 C10.72 15 5.44 15 0 15 C0 10.05 0 5.1 0 0 Z " fill="#DCDCDC" transform="translate(422,375)"/>
<path d="M0 0 C5.28 0 10.56 0 16 0 C16 4.95 16 9.9 16 15 C10.72 15 5.44 15 0 15 C0 10.05 0 5.1 0 0 Z " fill="#DCDCDC" transform="translate(63,375)"/>
<path d="M0 0 C5.28 0 10.56 0 16 0 C16 4.95 16 9.9 16 15 C10.72 15 5.44 15 0 15 C0 10.05 0 5.1 0 0 Z " fill="#8C8C8C" transform="translate(47,375)"/>
<path d="M0 0 C4.95 0 9.9 0 15 0 C15 5.28 15 10.56 15 16 C10.05 16 5.1 16 0 16 C0 10.72 0 5.44 0 0 Z " fill="#DCDCDC" transform="translate(454,343)"/>
<path d="M0 0 C4.95 0 9.9 0 15 0 C15 5.28 15 10.56 15 16 C10.05 16 5.1 16 0 16 C0 10.72 0 5.44 0 0 Z " fill="#DCDCDC" transform="translate(32,343)"/>
<path d="M0 0 C5.28 0 10.56 0 16 0 C16 4.95 16 9.9 16 15 C10.72 15 5.44 15 0 15 C0 10.05 0 5.1 0 0 Z " fill="#8C8C8C" transform="translate(469,328)"/>
<path d="M0 0 C5.28 0 10.56 0 16 0 C16 4.95 16 9.9 16 15 C10.72 15 5.44 15 0 15 C0 10.05 0 5.1 0 0 Z " fill="#8C8C8C" transform="translate(16,328)"/>
<path d="M0 0 C4.95 0 9.9 0 15 0 C15 5.28 15 10.56 15 16 C10.05 16 5.1 16 0 16 C0 10.72 0 5.44 0 0 Z " fill="#DCDCDC" transform="translate(454,156)"/>
<path d="M0 0 C4.95 0 9.9 0 15 0 C15 5.28 15 10.56 15 16 C10.05 16 5.1 16 0 16 C0 10.72 0 5.44 0 0 Z " fill="#DCDCDC" transform="translate(32,156)"/>
<path d="M0 0 C5.28 0 10.56 0 16 0 C16 4.95 16 9.9 16 15 C10.72 15 5.44 15 0 15 C0 10.05 0 5.1 0 0 Z " fill="#232323" transform="translate(422,94)"/>
<path d="M0 0 C5.28 0 10.56 0 16 0 C16 4.95 16 9.9 16 15 C10.72 15 5.44 15 0 15 C0 10.05 0 5.1 0 0 Z " fill="#232323" transform="translate(63,94)"/>
<path d="M0 0 C4.95 0 9.9 0 15 0 C15 5.28 15 10.56 15 16 C10.05 16 5.1 16 0 16 C0 10.72 0 5.44 0 0 Z " fill="#232323" transform="translate(407,78)"/>
<path d="M0 0 C4.95 0 9.9 0 15 0 C15 5.28 15 10.56 15 16 C10.05 16 5.1 16 0 16 C0 10.72 0 5.44 0 0 Z " fill="#232323" transform="translate(79,78)"/>
<path d="M0 0 C4.95 0 9.9 0 15 0 C15 4.95 15 9.9 15 15 C10.05 15 5.1 15 0 15 C0 10.05 0 5.1 0 0 Z " fill="#8C8C8C" transform="translate(407,406)"/>
<path d="M0 0 C4.95 0 9.9 0 15 0 C15 4.95 15 9.9 15 15 C10.05 15 5.1 15 0 15 C0 10.05 0 5.1 0 0 Z " fill="#8C8C8C" transform="translate(79,406)"/>
<path d="M0 0 C4.95 0 9.9 0 15 0 C15 4.95 15 9.9 15 15 C10.05 15 5.1 15 0 15 C0 10.05 0 5.1 0 0 Z " fill="#232323" transform="translate(454,375)"/>
<path d="M0 0 C4.95 0 9.9 0 15 0 C15 4.95 15 9.9 15 15 C10.05 15 5.1 15 0 15 C0 10.05 0 5.1 0 0 Z " fill="#232323" transform="translate(32,375)"/>
<path d="M0 0 C4.95 0 9.9 0 15 0 C15 4.95 15 9.9 15 15 C10.05 15 5.1 15 0 15 C0 10.05 0 5.1 0 0 Z " fill="#DCDCDC" transform="translate(407,94)"/>
<path d="M0 0 C4.95 0 9.9 0 15 0 C15 4.95 15 9.9 15 15 C10.05 15 5.1 15 0 15 C0 10.05 0 5.1 0 0 Z " fill="#DCDCDC" transform="translate(79,94)"/>
</svg>
