<?xml version="1.0" encoding="UTF-8"?>
<svg version="1.1" xmlns="http://www.w3.org/2000/svg" width="500" height="446">
<path d="M0 0 C129.69 0 259.38 0 393 0 C393 5.94 393 11.88 393 18 C398.94 18 404.88 18 411 18 C411 12.06 411 6.12 411 0 C428.82 0 446.64 0 465 0 C465 5.94 465 11.88 465 18 C470.61 18 476.22 18 482 18 C482 83.01 482 148.02 482 215 C476.39 215 470.78 215 465 215 C465 220.61 465 226.22 465 232 C447.18 232 429.36 232 411 232 C411 226.39 411 220.78 411 215 C405.06 215 399.12 215 393 215 C393 220.61 393 226.22 393 232 C357.69 232 322.38 232 286 232 C286 302.62 286 373.24 286 446 C250.69 446 215.38 446 179 446 C179 375.38 179 304.76 179 232 C155.24 232 131.48 232 107 232 C107 226.39 107 220.78 107 215 C95.45 215 83.9 215 72 215 C72 220.61 72 226.22 72 232 C48.24 232 24.48 232 0 232 C0 226.39 0 220.78 0 215 C-5.94 215 -11.88 215 -18 215 C-18 149.99 -18 84.98 -18 18 C-12.06 18 -6.12 18 0 18 C0 12.06 0 6.12 0 0 Z " fill="#AE7244" transform="translate(18,0)"/>
<path d="M0 0 C135.63 0 271.26 0 411 0 C411 5.94 411 11.88 411 18 C416.94 18 422.88 18 429 18 C429 59.25 429 100.5 429 143 C287.43 143 145.86 143 0 143 C0 95.81 0 48.62 0 0 Z " fill="#B17446" transform="translate(36,36)"/>
<path d="M0 0 C129.69 0 259.38 0 393 0 C393 11.88 393 23.76 393 36 C269.25 36 145.5 36 18 36 C18 89.13 18 142.26 18 197 C12.06 197 6.12 197 0 197 C0 131.99 0 66.98 0 0 Z " fill="#B5784A" transform="translate(18,0)"/>
<path d="M0 0 C23.43 0 46.86 0 71 0 C71 65.01 71 130.02 71 197 C47.57 197 24.14 197 0 197 C0 131.99 0 66.98 0 0 Z " fill="#B5784A" transform="translate(215,232)"/>
<path d="M0 0 C94.38 0 188.76 0 286 0 C286 5.61 286 11.22 286 17 C250.69 17 215.38 17 179 17 C179 87.62 179 158.24 179 231 C143.69 231 108.38 231 72 231 C72 160.38 72 89.76 72 17 C48.24 17 24.48 17 0 17 C0 11.39 0 5.78 0 0 Z M90 17 C90 82.01 90 147.02 90 214 C113.43 214 136.86 214 161 214 C161 148.99 161 83.98 161 17 C137.57 17 114.14 17 90 17 Z " fill="#653922" transform="translate(125,215)"/>
<path d="M0 0 C17.82 0 35.64 0 54 0 C54 5.94 54 11.88 54 18 C59.61 18 65.22 18 71 18 C71 83.01 71 148.02 71 215 C65.39 215 59.78 215 54 215 C54 220.61 54 226.22 54 232 C36.18 232 18.36 232 0 232 C0 226.39 0 220.78 0 215 C-5.94 215 -11.88 215 -18 215 C-18 209.06 -18 203.12 -18 197 C-6.12 197 5.76 197 18 197 C18 191.06 18 185.12 18 179 C23.94 179 29.88 179 36 179 C36 137.75 36 96.5 36 54 C30.06 54 24.12 54 18 54 C18 48.06 18 42.12 18 36 C6.12 36 -5.76 36 -18 36 C-18 30.06 -18 24.12 -18 18 C-12.06 18 -6.12 18 0 18 C0 12.06 0 6.12 0 0 Z " fill="#A15E3A" transform="translate(429,0)"/>
<path d="M0 0 C135.63 0 271.26 0 411 0 C411 5.94 411 11.88 411 18 C275.37 18 139.74 18 0 18 C0 12.06 0 6.12 0 0 Z " fill="#AE7244" transform="translate(36,36)"/>
<path d="M0 0 C129.69 0 259.38 0 393 0 C393 5.94 393 11.88 393 18 C263.31 18 133.62 18 0 18 C0 12.06 0 6.12 0 0 Z " fill="#B5784A" transform="translate(54,54)"/>
<path d="M0 0 C129.69 0 259.38 0 393 0 C393 5.94 393 11.88 393 18 C263.31 18 133.62 18 0 18 C0 12.06 0 6.12 0 0 Z " fill="#653922" transform="translate(18,0)"/>
<path d="M0 0 C5.94 0 11.88 0 18 0 C18 59.07 18 118.14 18 179 C23.94 179 29.88 179 36 179 C36 173.06 36 167.12 36 161 C41.94 161 47.88 161 54 161 C54 166.94 54 172.88 54 179 C77.43 179 100.86 179 125 179 C125 184.94 125 190.88 125 197 C113.45 197 101.9 197 90 197 C90 202.61 90 208.22 90 214 C66.24 214 42.48 214 18 214 C18 208.39 18 202.78 18 197 C12.06 197 6.12 197 0 197 C0 131.99 0 66.98 0 0 Z " fill="#653922" transform="translate(0,18)"/>
<path d="M0 0 C23.43 0 46.86 0 71 0 C71 65.01 71 130.02 71 197 C47.57 197 24.14 197 0 197 C0 191.06 0 185.12 0 179 C17.49 179 34.98 179 53 179 C53 125.87 53 72.74 53 18 C35.51 18 18.02 18 0 18 C0 12.06 0 6.12 0 0 Z " fill="#A15E3A" transform="translate(215,232)"/>
<path d="M0 0 C94.38 0 188.76 0 286 0 C286 5.94 286 11.88 286 18 C191.62 18 97.24 18 0 18 C0 12.06 0 6.12 0 0 Z " fill="#A15E3A" transform="translate(125,197)"/>
<path d="M0 0 C5.94 0 11.88 0 18 0 C18 5.94 18 11.88 18 18 C41.43 18 64.86 18 89 18 C89 23.94 89 29.88 89 36 C77.45 36 65.9 36 54 36 C54 41.61 54 47.22 54 53 C30.24 53 6.48 53 -18 53 C-18 41.45 -18 29.9 -18 18 C-12.06 18 -6.12 18 0 18 C0 12.06 0 6.12 0 0 Z " fill="#A15E3A" transform="translate(36,179)"/>
<path d="M0 0 C5.61 0 11.22 0 17 0 C17 65.01 17 130.02 17 197 C11.39 197 5.78 197 0 197 C0 131.99 0 66.98 0 0 Z " fill="#653922" transform="translate(483,18)"/>
<path d="M0 0 C23.43 0 46.86 0 71 0 C71 5.94 71 11.88 71 18 C47.57 18 24.14 18 0 18 C0 12.06 0 6.12 0 0 Z " fill="#945533" transform="translate(215,232)"/>
<path d="M0 0 C23.76 0 47.52 0 72 0 C72 5.61 72 11.22 72 17 C48.24 17 24.48 17 0 17 C0 11.39 0 5.78 0 0 Z " fill="#653922" transform="translate(18,215)"/>
<path d="M0 0 C17.82 0 35.64 0 54 0 C54 5.94 54 11.88 54 18 C36.18 18 18.36 18 0 18 C0 12.06 0 6.12 0 0 Z " fill="#653922" transform="translate(429,0)"/>
<path d="M0 0 C17.82 0 35.64 0 54 0 C54 5.61 54 11.22 54 17 C36.18 17 18.36 17 0 17 C0 11.39 0 5.78 0 0 Z " fill="#653922" transform="translate(429,215)"/>
<path d="M0 0 C11.88 0 23.76 0 36 0 C36 5.94 36 11.88 36 18 C24.12 18 12.24 18 0 18 C0 12.06 0 6.12 0 0 Z " fill="#A15E3A" transform="translate(411,18)"/>
<path d="M0 0 C11.55 0 23.1 0 35 0 C35 5.94 35 11.88 35 18 C23.45 18 11.9 18 0 18 C0 12.06 0 6.12 0 0 Z " fill="#653922" transform="translate(90,197)"/>
<path d="M0 0 C11.55 0 23.1 0 35 0 C35 5.94 35 11.88 35 18 C23.45 18 11.9 18 0 18 C0 12.06 0 6.12 0 0 Z " fill="#A15E3A" transform="translate(90,179)"/>
<path d="M0 0 C5.94 0 11.88 0 18 0 C18 5.94 18 11.88 18 18 C12.06 18 6.12 18 0 18 C0 12.06 0 6.12 0 0 Z " fill="#653922" transform="translate(411,197)"/>
<path d="M0 0 C5.94 0 11.88 0 18 0 C18 5.94 18 11.88 18 18 C12.06 18 6.12 18 0 18 C0 12.06 0 6.12 0 0 Z " fill="#653922" transform="translate(447,179)"/>
<path d="M0 0 C5.94 0 11.88 0 18 0 C18 5.94 18 11.88 18 18 C12.06 18 6.12 18 0 18 C0 12.06 0 6.12 0 0 Z " fill="#A15E3A" transform="translate(411,179)"/>
<path d="M0 0 C5.94 0 11.88 0 18 0 C18 5.94 18 11.88 18 18 C12.06 18 6.12 18 0 18 C0 12.06 0 6.12 0 0 Z " fill="#653922" transform="translate(36,179)"/>
<path d="M0 0 C5.94 0 11.88 0 18 0 C18 5.94 18 11.88 18 18 C12.06 18 6.12 18 0 18 C0 12.06 0 6.12 0 0 Z " fill="#653922" transform="translate(447,36)"/>
<path d="M0 0 C5.94 0 11.88 0 18 0 C18 5.94 18 11.88 18 18 C12.06 18 6.12 18 0 18 C0 12.06 0 6.12 0 0 Z " fill="#653922" transform="translate(36,36)"/>
<path d="M0 0 C5.94 0 11.88 0 18 0 C18 5.94 18 11.88 18 18 C12.06 18 6.12 18 0 18 C0 12.06 0 6.12 0 0 Z " fill="#B5784A" transform="translate(447,18)"/>
<path d="M0 0 C5.94 0 11.88 0 18 0 C18 5.94 18 11.88 18 18 C12.06 18 6.12 18 0 18 C0 12.06 0 6.12 0 0 Z " fill="#653922" transform="translate(411,18)"/>
</svg>
