<?xml version="1.0" encoding="UTF-8"?>
<svg version="1.1" xmlns="http://www.w3.org/2000/svg" width="500" height="500">
<path d="M0 0 C165 0 330 0 500 0 C500 165 500 330 500 500 C335 500 170 500 0 500 C0 335 0 170 0 0 Z " fill="#949494" transform="translate(0,0)"/>
<path d="M0 0 C165 0 330 0 500 0 C500 165 500 330 500 500 C335 500 170 500 0 500 C0 335 0 170 0 0 Z M46 23 C46 30.59 46 38.18 46 46 C38.41 46 30.82 46 23 46 C23 173.38 23 300.76 23 432 C30.59 432 38.18 432 46 432 C46 439.59 46 447.18 46 455 C180.97 455 315.94 455 455 455 C455 394.94 455 334.88 455 273 C462.59 273 470.18 273 478 273 C478 198.09 478 123.18 478 46 C470.41 46 462.82 46 455 46 C455 38.41 455 30.82 455 23 C320.03 23 185.06 23 46 23 Z " fill="#282828" transform="translate(0,0)"/>
<path d="M0 0 C14.85 0 29.7 0 45 0 C45 165 45 330 45 500 C30.15 500 15.3 500 0 500 C0 492.74 0 485.48 0 478 C-134.97 478 -269.94 478 -409 478 C-409 470.41 -409 462.82 -409 455 C-274.03 455 -139.06 455 0 455 C0 394.94 0 334.88 0 273 C7.59 273 15.18 273 23 273 C23 198.09 23 123.18 23 46 C15.41 46 7.82 46 0 46 C0 30.82 0 15.64 0 0 Z " fill="#282828" transform="translate(455,0)"/>
<path d="M0 0 C7.26 0 14.52 0 22 0 C22 90.09 22 180.18 22 273 C14.74 273 7.48 273 0 273 C0 265.41 0 257.82 0 250 C-7.59 250 -15.18 250 -23 250 C-23 242.41 -23 234.82 -23 227 C-30.59 227 -38.18 227 -46 227 C-46 219.74 -46 212.48 -46 205 C-53.26 205 -60.52 205 -68 205 C-68 197.41 -68 189.82 -68 182 C-83.18 182 -98.36 182 -114 182 C-114 151.97 -114 121.94 -114 91 C-98.82 91 -83.64 91 -68 91 C-68 83.41 -68 75.82 -68 68 C-60.74 68 -53.48 68 -46 68 C-46 60.74 -46 53.48 -46 46 C-38.41 46 -30.82 46 -23 46 C-23 38.41 -23 30.82 -23 23 C-15.41 23 -7.82 23 0 23 C0 15.41 0 7.82 0 0 Z " fill="#000000" transform="translate(228,114)"/>
<path d="M0 0 C134.97 0 269.94 0 409 0 C409 7.59 409 15.18 409 23 C274.03 23 139.06 23 0 23 C0 15.41 0 7.82 0 0 Z " fill="#4A4A4A" transform="translate(46,455)"/>
<path d="M0 0 C134.97 0 269.94 0 409 0 C409 7.26 409 14.52 409 22 C274.03 22 139.06 22 0 22 C0 14.74 0 7.48 0 0 Z " fill="#282828" transform="translate(46,478)"/>
<path d="M0 0 C7.59 0 15.18 0 23 0 C23 60.06 23 120.12 23 182 C15.41 182 7.82 182 0 182 C0 121.94 0 61.88 0 0 Z " fill="#4A4A4A" transform="translate(455,273)"/>
<path d="M0 0 C7.59 0 15.18 0 23 0 C23 59.73 23 119.46 23 181 C15.41 181 7.82 181 0 181 C0 121.27 0 61.54 0 0 Z " fill="#000000" transform="translate(341,160)"/>
<path d="M0 0 C52.47 0 104.94 0 159 0 C159 7.59 159 15.18 159 23 C106.53 23 54.06 23 0 23 C0 15.41 0 7.82 0 0 Z " fill="#C3C3C3" transform="translate(114,23)"/>
<path d="M0 0 C7.59 0 15.18 0 23 0 C23 45.21 23 90.42 23 137 C15.41 137 7.82 137 0 137 C0 91.79 0 46.58 0 0 Z " fill="#000000" transform="translate(296,182)"/>
<path d="M0 0 C15.18 0 30.36 0 46 0 C46 7.59 46 15.18 46 23 C38.41 23 30.82 23 23 23 C23 45.44 23 67.88 23 91 C15.41 91 7.82 91 0 91 C0 60.97 0 30.94 0 0 Z " fill="#222222" transform="translate(114,205)"/>
<path d="M0 0 C15.18 0 30.36 0 46 0 C46 15.18 46 30.36 46 46 C30.82 46 15.64 46 0 46 C0 30.82 0 15.64 0 0 Z " fill="#6F6F6F" transform="translate(0,0)"/>
<path d="M0 0 C14.85 0 29.7 0 45 0 C45 15.18 45 30.36 45 46 C30.15 46 15.3 46 0 46 C0 30.82 0 15.64 0 0 Z " fill="#4C4C4C" transform="translate(455,0)"/>
<path d="M0 0 C7.59 0 15.18 0 23 0 C23 22.44 23 44.88 23 68 C15.41 68 7.82 68 0 68 C0 45.56 0 23.12 0 0 Z " fill="#C3C3C3" transform="translate(23,46)"/>
<path d="M0 0 C7.59 0 15.18 0 23 0 C23 7.59 23 15.18 23 23 C30.59 23 38.18 23 46 23 C46 30.26 46 37.52 46 45 C30.82 45 15.64 45 0 45 C0 30.15 0 15.3 0 0 Z " fill="#333333" transform="translate(0,455)"/>
<path d="M0 0 C7.59 0 15.18 0 23 0 C23 15.18 23 30.36 23 46 C15.41 46 7.82 46 0 46 C0 30.82 0 15.64 0 0 Z " fill="#141414" transform="translate(114,250)"/>
<path d="M0 0 C7.59 0 15.18 0 23 0 C23 15.18 23 30.36 23 46 C15.41 46 7.82 46 0 46 C0 30.82 0 15.64 0 0 Z " fill="#141414" transform="translate(296,182)"/>
<path d="M0 0 C14.85 0 29.7 0 45 0 C45 7.59 45 15.18 45 23 C30.15 23 15.3 23 0 23 C0 15.41 0 7.82 0 0 Z " fill="#C3C3C3" transform="translate(296,23)"/>
<path d="M0 0 C14.85 0 29.7 0 45 0 C45 7.59 45 15.18 45 23 C30.15 23 15.3 23 0 23 C0 15.41 0 7.82 0 0 Z " fill="#FFFFFF" transform="translate(46,23)"/>
<path d="M0 0 C7.59 0 15.18 0 23 0 C23 7.59 23 15.18 23 23 C15.41 23 7.82 23 0 23 C0 15.41 0 7.82 0 0 Z " fill="#282828" transform="translate(455,455)"/>
<path d="M0 0 C7.59 0 15.18 0 23 0 C23 7.59 23 15.18 23 23 C15.41 23 7.82 23 0 23 C0 15.41 0 7.82 0 0 Z " fill="#4A4A4A" transform="translate(23,432)"/>
<path d="M0 0 C7.59 0 15.18 0 23 0 C23 7.59 23 15.18 23 23 C15.41 23 7.82 23 0 23 C0 15.41 0 7.82 0 0 Z " fill="#000000" transform="translate(296,364)"/>
<path d="M0 0 C7.59 0 15.18 0 23 0 C23 7.59 23 15.18 23 23 C15.41 23 7.82 23 0 23 C0 15.41 0 7.82 0 0 Z " fill="#141414" transform="translate(137,205)"/>
<path d="M0 0 C7.59 0 15.18 0 23 0 C23 7.59 23 15.18 23 23 C15.41 23 7.82 23 0 23 C0 15.41 0 7.82 0 0 Z " fill="#222222" transform="translate(296,182)"/>
<path d="M0 0 C7.59 0 15.18 0 23 0 C23 7.59 23 15.18 23 23 C15.41 23 7.82 23 0 23 C0 15.41 0 7.82 0 0 Z " fill="#141414" transform="translate(205,137)"/>
<path d="M0 0 C7.59 0 15.18 0 23 0 C23 7.59 23 15.18 23 23 C15.41 23 7.82 23 0 23 C0 15.41 0 7.82 0 0 Z " fill="#222222" transform="translate(296,114)"/>
<path d="M0 0 C7.59 0 15.18 0 23 0 C23 7.59 23 15.18 23 23 C15.41 23 7.82 23 0 23 C0 15.41 0 7.82 0 0 Z " fill="#FFFFFF" transform="translate(23,46)"/>
<path d="M0 0 C7.59 0 15.18 0 23 0 C23 7.59 23 15.18 23 23 C15.41 23 7.82 23 0 23 C0 15.41 0 7.82 0 0 Z " fill="#282828" transform="translate(455,23)"/>
<path d="M0 0 C7.59 0 15.18 0 23 0 C23 7.59 23 15.18 23 23 C15.41 23 7.82 23 0 23 C0 15.41 0 7.82 0 0 Z " fill="#FFFFFF" transform="translate(114,23)"/>
<path d="M0 0 C7.59 0 15.18 0 23 0 C23 7.59 23 15.18 23 23 C15.41 23 7.82 23 0 23 C0 15.41 0 7.82 0 0 Z " fill="#C3C3C3" transform="translate(91,23)"/>
<path d="M0 0 C7.59 0 15.18 0 23 0 C23 7.59 23 15.18 23 23 C15.41 23 7.82 23 0 23 C0 15.41 0 7.82 0 0 Z " fill="#282828" transform="translate(23,23)"/>
<path d="M0 0 C7.59 0 15.18 0 23 0 C23 7.59 23 15.18 23 23 C15.41 23 7.82 23 0 23 C0 15.41 0 7.82 0 0 Z " fill="#6F6F6F" transform="translate(0,23)"/>
<path d="M0 0 C7.59 0 15.18 0 23 0 C23 7.59 23 15.18 23 23 C15.41 23 7.82 23 0 23 C0 15.41 0 7.82 0 0 Z " fill="#282828" transform="translate(0,0)"/>
<path d="M0 0 C7.59 0 15.18 0 23 0 C23 7.26 23 14.52 23 22 C15.41 22 7.82 22 0 22 C0 14.74 0 7.48 0 0 Z " fill="#333333" transform="translate(455,478)"/>
<path d="M0 0 C7.59 0 15.18 0 23 0 C23 7.26 23 14.52 23 22 C15.41 22 7.82 22 0 22 C0 14.74 0 7.48 0 0 Z " fill="#333333" transform="translate(23,478)"/>
<path d="M0 0 C7.59 0 15.18 0 23 0 C23 7.26 23 14.52 23 22 C15.41 22 7.82 22 0 22 C0 14.74 0 7.48 0 0 Z " fill="#282828" transform="translate(0,478)"/>
<path d="M0 0 C7.26 0 14.52 0 22 0 C22 7.59 22 15.18 22 23 C14.74 23 7.48 23 0 23 C0 15.41 0 7.82 0 0 Z " fill="#000000" transform="translate(319,341)"/>
<path d="M0 0 C7.59 0 15.18 0 23 0 C23 7.26 23 14.52 23 22 C15.41 22 7.82 22 0 22 C0 14.74 0 7.48 0 0 Z " fill="#000000" transform="translate(273,319)"/>
<path d="M0 0 C7.26 0 14.52 0 22 0 C22 7.59 22 15.18 22 23 C14.74 23 7.48 23 0 23 C0 15.41 0 7.82 0 0 Z " fill="#141414" transform="translate(160,182)"/>
<path d="M0 0 C7.59 0 15.18 0 23 0 C23 7.26 23 14.52 23 22 C15.41 22 7.82 22 0 22 C0 14.74 0 7.48 0 0 Z " fill="#141414" transform="translate(341,160)"/>
<path d="M0 0 C7.59 0 15.18 0 23 0 C23 7.26 23 14.52 23 22 C15.41 22 7.82 22 0 22 C0 14.74 0 7.48 0 0 Z " fill="#222222" transform="translate(273,160)"/>
<path d="M0 0 C7.59 0 15.18 0 23 0 C23 7.26 23 14.52 23 22 C15.41 22 7.82 22 0 22 C0 14.74 0 7.48 0 0 Z " fill="#141414" transform="translate(182,160)"/>
<path d="M0 0 C7.26 0 14.52 0 22 0 C22 7.59 22 15.18 22 23 C14.74 23 7.48 23 0 23 C0 15.41 0 7.82 0 0 Z " fill="#141414" transform="translate(319,137)"/>
<path d="M0 0 C7.26 0 14.52 0 22 0 C22 7.59 22 15.18 22 23 C14.74 23 7.48 23 0 23 C0 15.41 0 7.82 0 0 Z " fill="#141414" transform="translate(228,114)"/>
<path d="M0 0 C7.26 0 14.52 0 22 0 C22 7.59 22 15.18 22 23 C14.74 23 7.48 23 0 23 C0 15.41 0 7.82 0 0 Z " fill="#4C4C4C" transform="translate(478,23)"/>
<path d="M0 0 C7.26 0 14.52 0 22 0 C22 7.59 22 15.18 22 23 C14.74 23 7.48 23 0 23 C0 15.41 0 7.82 0 0 Z " fill="#282828" transform="translate(478,0)"/>
<path d="M0 0 C7.26 0 14.52 0 22 0 C22 7.26 22 14.52 22 22 C14.74 22 7.48 22 0 22 C0 14.74 0 7.48 0 0 Z " fill="#282828" transform="translate(478,478)"/>
</svg>
