<?xml version="1.0" encoding="UTF-8"?>
<svg version="1.1" xmlns="http://www.w3.org/2000/svg" width="500" height="500">
<path d="M0 0 C165 0 330 0 500 0 C500 165 500 330 500 500 C335 500 170 500 0 500 C0 335 0 170 0 0 Z " fill="#949494" transform="translate(0,0)"/>
<path d="M0 0 C165 0 330 0 500 0 C500 165 500 330 500 500 C335 500 170 500 0 500 C0 335 0 170 0 0 Z M46 23 C46 30.59 46 38.18 46 46 C38.41 46 30.82 46 23 46 C23 173.38 23 300.76 23 432 C30.59 432 38.18 432 46 432 C46 439.59 46 447.18 46 455 C180.97 455 315.94 455 455 455 C455 394.94 455 334.88 455 273 C462.59 273 470.18 273 478 273 C478 198.09 478 123.18 478 46 C470.41 46 462.82 46 455 46 C455 38.41 455 30.82 455 23 C320.03 23 185.06 23 46 23 Z " fill="#282828" transform="translate(0,0)"/>
<path d="M0 0 C14.85 0 29.7 0 45 0 C45 7.26 45 14.52 45 22 C52.59 22 60.18 22 68 22 C68 29.59 68 37.18 68 45 C75.59 45 83.18 45 91 45 C91 52.59 91 60.18 91 68 C98.26 68 105.52 68 113 68 C113 75.59 113 83.18 113 91 C120.59 91 128.18 91 136 91 C136 83.41 136 75.82 136 68 C143.59 68 151.18 68 159 68 C159 60.41 159 52.82 159 45 C166.26 45 173.52 45 181 45 C181 82.62 181 120.24 181 159 C188.59 159 196.18 159 204 159 C204 166.26 204 173.52 204 181 C211.59 181 219.18 181 227 181 C227 158.56 227 136.12 227 113 C234.59 113 242.18 113 250 113 C250 150.62 250 188.24 250 227 C257.26 227 264.52 227 272 227 C272 182.12 272 137.24 272 91 C279.59 91 287.18 91 295 91 C295 150.73 295 210.46 295 272 C302.59 272 310.18 272 318 272 C318 279.59 318 287.18 318 295 C325.59 295 333.18 295 341 295 C341 302.59 341 310.18 341 318 C348.26 318 355.52 318 363 318 C363 332.85 363 347.7 363 363 C348.15 363 333.3 363 318 363 C318 355.74 318 348.48 318 341 C310.41 341 302.82 341 295 341 C295 333.41 295 325.82 295 318 C287.41 318 279.82 318 272 318 C272 310.41 272 302.82 272 295 C264.74 295 257.48 295 250 295 C250 287.41 250 279.82 250 272 C234.82 272 219.64 272 204 272 C204 257.15 204 242.3 204 227 C196.41 227 188.82 227 181 227 C181 257.03 181 287.06 181 318 C173.74 318 166.48 318 159 318 C159 310.41 159 302.82 159 295 C151.41 295 143.82 295 136 295 C136 287.41 136 279.82 136 272 C128.41 272 120.82 272 113 272 C113 264.74 113 257.48 113 250 C105.74 250 98.48 250 91 250 C91 242.41 91 234.82 91 227 C75.82 227 60.64 227 45 227 C45 196.97 45 166.94 45 136 C60.18 136 75.36 136 91 136 C91 128.41 91 120.82 91 113 C83.41 113 75.82 113 68 113 C68 105.74 68 98.48 68 91 C60.41 91 52.82 91 45 91 C45 83.41 45 75.82 45 68 C37.41 68 29.82 68 22 68 C22 60.41 22 52.82 22 45 C14.74 45 7.48 45 0 45 C0 30.15 0 15.3 0 0 Z " fill="#EB0000" transform="translate(69,69)"/>
<path d="M0 0 C14.85 0 29.7 0 45 0 C45 165 45 330 45 500 C30.15 500 15.3 500 0 500 C0 492.74 0 485.48 0 478 C-134.97 478 -269.94 478 -409 478 C-409 470.41 -409 462.82 -409 455 C-274.03 455 -139.06 455 0 455 C0 394.94 0 334.88 0 273 C7.59 273 15.18 273 23 273 C23 198.09 23 123.18 23 46 C15.41 46 7.82 46 0 46 C0 30.82 0 15.64 0 0 Z " fill="#282828" transform="translate(455,0)"/>
<path d="M0 0 C22.44 0 44.88 0 68 0 C68 7.59 68 15.18 68 23 C75.59 23 83.18 23 91 23 C91 30.26 91 37.52 91 45 C98.59 45 106.18 45 114 45 C114 52.59 114 60.18 114 68 C121.26 68 128.52 68 136 68 C136 105.62 136 143.24 136 182 C128.74 182 121.48 182 114 182 C114 174.41 114 166.82 114 159 C106.41 159 98.82 159 91 159 C91 151.41 91 143.82 91 136 C83.41 136 75.82 136 68 136 C68 128.74 68 121.48 68 114 C60.74 114 53.48 114 46 114 C46 106.41 46 98.82 46 91 C30.82 91 15.64 91 0 91 C0 60.97 0 30.94 0 0 Z " fill="#000000" transform="translate(114,205)"/>
<path d="M0 0 C134.97 0 269.94 0 409 0 C409 7.59 409 15.18 409 23 C274.03 23 139.06 23 0 23 C0 15.41 0 7.82 0 0 Z " fill="#4A4A4A" transform="translate(46,455)"/>
<path d="M0 0 C134.97 0 269.94 0 409 0 C409 7.26 409 14.52 409 22 C274.03 22 139.06 22 0 22 C0 14.74 0 7.48 0 0 Z " fill="#282828" transform="translate(46,478)"/>
<path d="M0 0 C7.59 0 15.18 0 23 0 C23 60.06 23 120.12 23 182 C15.41 182 7.82 182 0 182 C0 121.94 0 61.88 0 0 Z " fill="#4A4A4A" transform="translate(455,273)"/>
<path d="M0 0 C7.59 0 15.18 0 23 0 C23 52.47 23 104.94 23 159 C15.41 159 7.82 159 0 159 C0 106.53 0 54.06 0 0 Z " fill="#000000" transform="translate(341,160)"/>
<path d="M0 0 C52.47 0 104.94 0 159 0 C159 7.59 159 15.18 159 23 C106.53 23 54.06 23 0 23 C0 15.41 0 7.82 0 0 Z " fill="#C3C3C3" transform="translate(114,23)"/>
<path d="M0 0 C7.26 0 14.52 0 22 0 C22 30.03 22 60.06 22 91 C14.74 91 7.48 91 0 91 C0 83.41 0 75.82 0 68 C-7.59 68 -15.18 68 -23 68 C-23 53.15 -23 38.3 -23 23 C-15.41 23 -7.82 23 0 23 C0 15.41 0 7.82 0 0 Z " fill="#000000" transform="translate(228,114)"/>
<path d="M0 0 C15.18 0 30.36 0 46 0 C46 7.59 46 15.18 46 23 C38.41 23 30.82 23 23 23 C23 45.44 23 67.88 23 91 C15.41 91 7.82 91 0 91 C0 60.97 0 30.94 0 0 Z " fill="#222222" transform="translate(114,205)"/>
<path d="M0 0 C15.18 0 30.36 0 46 0 C46 15.18 46 30.36 46 46 C30.82 46 15.64 46 0 46 C0 30.82 0 15.64 0 0 Z " fill="#6F6F6F" transform="translate(0,0)"/>
<path d="M0 0 C7.59 0 15.18 0 23 0 C23 30.03 23 60.06 23 91 C15.41 91 7.82 91 0 91 C0 60.97 0 30.94 0 0 Z " fill="#141414" transform="translate(296,182)"/>
<path d="M0 0 C14.85 0 29.7 0 45 0 C45 15.18 45 30.36 45 46 C30.15 46 15.3 46 0 46 C0 30.82 0 15.64 0 0 Z " fill="#4C4C4C" transform="translate(455,0)"/>
<path d="M0 0 C7.59 0 15.18 0 23 0 C23 22.44 23 44.88 23 68 C15.41 68 7.82 68 0 68 C0 45.56 0 23.12 0 0 Z " fill="#C3C3C3" transform="translate(23,46)"/>
<path d="M0 0 C7.59 0 15.18 0 23 0 C23 7.59 23 15.18 23 23 C30.59 23 38.18 23 46 23 C46 30.26 46 37.52 46 45 C30.82 45 15.64 45 0 45 C0 30.15 0 15.3 0 0 Z " fill="#333333" transform="translate(0,455)"/>
<path d="M0 0 C7.59 0 15.18 0 23 0 C23 15.18 23 30.36 23 46 C15.41 46 7.82 46 0 46 C0 30.82 0 15.64 0 0 Z " fill="#141414" transform="translate(114,250)"/>
<path d="M0 0 C7.59 0 15.18 0 23 0 C23 14.85 23 29.7 23 45 C15.41 45 7.82 45 0 45 C0 30.15 0 15.3 0 0 Z " fill="#000000" transform="translate(296,228)"/>
<path d="M0 0 C14.85 0 29.7 0 45 0 C45 7.59 45 15.18 45 23 C30.15 23 15.3 23 0 23 C0 15.41 0 7.82 0 0 Z " fill="#C3C3C3" transform="translate(296,23)"/>
<path d="M0 0 C14.85 0 29.7 0 45 0 C45 7.59 45 15.18 45 23 C30.15 23 15.3 23 0 23 C0 15.41 0 7.82 0 0 Z " fill="#FFFFFF" transform="translate(46,23)"/>
<path d="M0 0 C7.59 0 15.18 0 23 0 C23 7.59 23 15.18 23 23 C15.41 23 7.82 23 0 23 C0 15.41 0 7.82 0 0 Z " fill="#282828" transform="translate(455,455)"/>
<path d="M0 0 C7.59 0 15.18 0 23 0 C23 7.59 23 15.18 23 23 C15.41 23 7.82 23 0 23 C0 15.41 0 7.82 0 0 Z " fill="#4A4A4A" transform="translate(23,432)"/>
<path d="M0 0 C7.59 0 15.18 0 23 0 C23 7.59 23 15.18 23 23 C15.41 23 7.82 23 0 23 C0 15.41 0 7.82 0 0 Z " fill="#000000" transform="translate(296,364)"/>
<path d="M0 0 C7.59 0 15.18 0 23 0 C23 7.59 23 15.18 23 23 C15.41 23 7.82 23 0 23 C0 15.41 0 7.82 0 0 Z " fill="#141414" transform="translate(137,205)"/>
<path d="M0 0 C7.59 0 15.18 0 23 0 C23 7.59 23 15.18 23 23 C15.41 23 7.82 23 0 23 C0 15.41 0 7.82 0 0 Z " fill="#222222" transform="translate(296,182)"/>
<path d="M0 0 C7.59 0 15.18 0 23 0 C23 7.59 23 15.18 23 23 C15.41 23 7.82 23 0 23 C0 15.41 0 7.82 0 0 Z " fill="#141414" transform="translate(205,137)"/>
<path d="M0 0 C7.59 0 15.18 0 23 0 C23 7.59 23 15.18 23 23 C15.41 23 7.82 23 0 23 C0 15.41 0 7.82 0 0 Z " fill="#222222" transform="translate(296,114)"/>
<path d="M0 0 C7.59 0 15.18 0 23 0 C23 7.59 23 15.18 23 23 C15.41 23 7.82 23 0 23 C0 15.41 0 7.82 0 0 Z " fill="#FFFFFF" transform="translate(23,46)"/>
<path d="M0 0 C7.59 0 15.18 0 23 0 C23 7.59 23 15.18 23 23 C15.41 23 7.82 23 0 23 C0 15.41 0 7.82 0 0 Z " fill="#282828" transform="translate(455,23)"/>
<path d="M0 0 C7.59 0 15.18 0 23 0 C23 7.59 23 15.18 23 23 C15.41 23 7.82 23 0 23 C0 15.41 0 7.82 0 0 Z " fill="#FFFFFF" transform="translate(114,23)"/>
<path d="M0 0 C7.59 0 15.18 0 23 0 C23 7.59 23 15.18 23 23 C15.41 23 7.82 23 0 23 C0 15.41 0 7.82 0 0 Z " fill="#C3C3C3" transform="translate(91,23)"/>
<path d="M0 0 C7.59 0 15.18 0 23 0 C23 7.59 23 15.18 23 23 C15.41 23 7.82 23 0 23 C0 15.41 0 7.82 0 0 Z " fill="#282828" transform="translate(23,23)"/>
<path d="M0 0 C7.59 0 15.18 0 23 0 C23 7.59 23 15.18 23 23 C15.41 23 7.82 23 0 23 C0 15.41 0 7.82 0 0 Z " fill="#6F6F6F" transform="translate(0,23)"/>
<path d="M0 0 C7.59 0 15.18 0 23 0 C23 7.59 23 15.18 23 23 C15.41 23 7.82 23 0 23 C0 15.41 0 7.82 0 0 Z " fill="#282828" transform="translate(0,0)"/>
<path d="M0 0 C7.59 0 15.18 0 23 0 C23 7.26 23 14.52 23 22 C15.41 22 7.82 22 0 22 C0 14.74 0 7.48 0 0 Z " fill="#333333" transform="translate(455,478)"/>
<path d="M0 0 C7.59 0 15.18 0 23 0 C23 7.26 23 14.52 23 22 C15.41 22 7.82 22 0 22 C0 14.74 0 7.48 0 0 Z " fill="#333333" transform="translate(23,478)"/>
<path d="M0 0 C7.59 0 15.18 0 23 0 C23 7.26 23 14.52 23 22 C15.41 22 7.82 22 0 22 C0 14.74 0 7.48 0 0 Z " fill="#282828" transform="translate(0,478)"/>
<path d="M0 0 C7.59 0 15.18 0 23 0 C23 7.26 23 14.52 23 22 C15.41 22 7.82 22 0 22 C0 14.74 0 7.48 0 0 Z " fill="#000000" transform="translate(273,319)"/>
<path d="M0 0 C7.59 0 15.18 0 23 0 C23 7.26 23 14.52 23 22 C15.41 22 7.82 22 0 22 C0 14.74 0 7.48 0 0 Z " fill="#141414" transform="translate(341,160)"/>
<path d="M0 0 C7.59 0 15.18 0 23 0 C23 7.26 23 14.52 23 22 C15.41 22 7.82 22 0 22 C0 14.74 0 7.48 0 0 Z " fill="#222222" transform="translate(273,160)"/>
<path d="M0 0 C7.26 0 14.52 0 22 0 C22 7.59 22 15.18 22 23 C14.74 23 7.48 23 0 23 C0 15.41 0 7.82 0 0 Z " fill="#141414" transform="translate(319,137)"/>
<path d="M0 0 C7.26 0 14.52 0 22 0 C22 7.59 22 15.18 22 23 C14.74 23 7.48 23 0 23 C0 15.41 0 7.82 0 0 Z " fill="#141414" transform="translate(228,114)"/>
<path d="M0 0 C7.26 0 14.52 0 22 0 C22 7.59 22 15.18 22 23 C14.74 23 7.48 23 0 23 C0 15.41 0 7.82 0 0 Z " fill="#4C4C4C" transform="translate(478,23)"/>
<path d="M0 0 C7.26 0 14.52 0 22 0 C22 7.59 22 15.18 22 23 C14.74 23 7.48 23 0 23 C0 15.41 0 7.82 0 0 Z " fill="#282828" transform="translate(478,0)"/>
<path d="M0 0 C7.26 0 14.52 0 22 0 C22 7.26 22 14.52 22 22 C14.74 22 7.48 22 0 22 C0 14.74 0 7.48 0 0 Z " fill="#282828" transform="translate(478,478)"/>
</svg>
