<?xml version="1.0" encoding="UTF-8"?>
<svg version="1.1" xmlns="http://www.w3.org/2000/svg" width="500" height="200">
<path d="M0 0 C154.11 0 308.22 0 467 0 C467 2.97 467 5.94 467 9 C469.64 9 472.28 9 475 9 C475 11.64 475 14.28 475 17 C477.64 17 480.28 17 483 17 C483 58.25 483 99.5 483 142 C480.36 142 477.72 142 475 142 C475 144.64 475 147.28 475 150 C472.36 150 469.72 150 467 150 C467 152.97 467 155.94 467 159 C376.25 159 285.5 159 192 159 C192 161.64 192 164.28 192 167 C189.03 167 186.06 167 183 167 C183 169.64 183 172.28 183 175 C180.36 175 177.72 175 175 175 C175 177.97 175 180.94 175 184 C169.39 184 163.78 184 158 184 C158 186.64 158 189.28 158 192 C152.72 192 147.44 192 142 192 C142 194.64 142 197.28 142 200 C130.78 200 119.56 200 108 200 C108 194.72 108 189.44 108 184 C110.97 184 113.94 184 117 184 C117 181.03 117 178.06 117 175 C119.64 175 122.28 175 125 175 C125 169.72 125 164.44 125 159 C83.75 159 42.5 159 0 159 C0 156.03 0 153.06 0 150 C-2.64 150 -5.28 150 -8 150 C-8 147.36 -8 144.72 -8 142 C-10.97 142 -13.94 142 -17 142 C-17 100.75 -17 59.5 -17 17 C-14.03 17 -11.06 17 -8 17 C-8 14.36 -8 11.72 -8 9 C-5.36 9 -2.72 9 0 9 C0 6.03 0 3.06 0 0 Z " fill="#FFFFFF" transform="translate(17,0)"/>
<path d="M0 0 C154.11 0 308.22 0 467 0 C467 2.97 467 5.94 467 9 C312.89 9 158.78 9 0 9 C0 6.03 0 3.06 0 0 Z " fill="#000000" transform="translate(17,0)"/>
<path d="M0 0 C90.75 0 181.5 0 275 0 C275 2.97 275 5.94 275 9 C184.25 9 93.5 9 0 9 C0 6.03 0 3.06 0 0 Z " fill="#000000" transform="translate(209,150)"/>
<path d="M0 0 C93.39 0 186.78 0 283 0 C283 2.64 283 5.28 283 8 C189.61 8 96.22 8 0 8 C0 5.36 0 2.72 0 0 Z " fill="#FFEDED" transform="translate(209,142)"/>
<path d="M0 0 C41.25 0 82.5 0 125 0 C125 2.97 125 5.94 125 9 C83.75 9 42.5 9 0 9 C0 6.03 0 3.06 0 0 Z " fill="#000000" transform="translate(17,150)"/>
<path d="M0 0 C2.97 0 5.94 0 9 0 C9 41.25 9 82.5 9 125 C6.03 125 3.06 125 0 125 C0 83.75 0 42.5 0 0 Z " fill="#000000" transform="translate(0,17)"/>
<path d="M0 0 C43.89 0 87.78 0 133 0 C133 2.64 133 5.28 133 8 C89.11 8 45.22 8 0 8 C0 5.36 0 2.72 0 0 Z " fill="#FFEDED" transform="translate(9,142)"/>
<path d="M0 0 C2.64 0 5.28 0 8 0 C8 41.25 8 82.5 8 125 C5.36 125 2.72 125 0 125 C0 83.75 0 42.5 0 0 Z " fill="#000000" transform="translate(492,17)"/>
<path d="M0 0 C8.25 0 16.5 0 25 0 C25 2.64 25 5.28 25 8 C22.36 8 19.72 8 17 8 C17 10.97 17 13.94 17 17 C11.39 17 5.78 17 0 17 C0 19.64 0 22.28 0 25 C-5.28 25 -10.56 25 -16 25 C-16 19.39 -16 13.78 -16 8 C-10.72 8 -5.44 8 0 8 C0 5.36 0 2.72 0 0 Z " fill="#FFEDED" transform="translate(175,167)"/>
<path d="M0 0 C2.97 0 5.94 0 9 0 C9 2.64 9 5.28 9 8 C17.25 8 25.5 8 34 8 C34 10.64 34 13.28 34 16 C22.78 16 11.56 16 0 16 C0 10.72 0 5.44 0 0 Z " fill="#000000" transform="translate(125,184)"/>
<path d="M0 0 C8.25 0 16.5 0 25 0 C25 2.64 25 5.28 25 8 C16.75 8 8.5 8 0 8 C0 5.36 0 2.72 0 0 Z " fill="#FFEDED" transform="translate(175,167)"/>
<path d="M0 0 C5.61 0 11.22 0 17 0 C17 2.97 17 5.94 17 9 C11.39 9 5.78 9 0 9 C0 6.03 0 3.06 0 0 Z " fill="#000000" transform="translate(175,175)"/>
<path d="M0 0 C2.97 0 5.94 0 9 0 C9 5.61 9 11.22 9 17 C6.03 17 3.06 17 0 17 C0 11.39 0 5.78 0 0 Z " fill="#FFEDED" transform="translate(200,150)"/>
<path d="M0 0 C5.28 0 10.56 0 16 0 C16 2.64 16 5.28 16 8 C10.72 8 5.44 8 0 8 C0 5.36 0 2.72 0 0 Z " fill="#000000" transform="translate(159,184)"/>
<path d="M0 0 C2.64 0 5.28 0 8 0 C8 5.28 8 10.56 8 16 C5.36 16 2.72 16 0 16 C0 10.72 0 5.44 0 0 Z " fill="#000000" transform="translate(142,159)"/>
<path d="M0 0 C2.97 0 5.94 0 9 0 C9 2.64 9 5.28 9 8 C6.03 8 3.06 8 0 8 C0 5.36 0 2.72 0 0 Z " fill="#FFEDED" transform="translate(150,184)"/>
<path d="M0 0 C2.64 0 5.28 0 8 0 C8 2.97 8 5.94 8 9 C5.36 9 2.72 9 0 9 C0 6.03 0 3.06 0 0 Z " fill="#000000" transform="translate(134,175)"/>
<path d="M0 0 C2.97 0 5.94 0 9 0 C9 2.64 9 5.28 9 8 C6.03 8 3.06 8 0 8 C0 5.36 0 2.72 0 0 Z " fill="#000000" transform="translate(200,159)"/>
<path d="M0 0 C2.64 0 5.28 0 8 0 C8 2.97 8 5.94 8 9 C5.36 9 2.72 9 0 9 C0 6.03 0 3.06 0 0 Z " fill="#FFEDED" transform="translate(142,150)"/>
<path d="M0 0 C2.64 0 5.28 0 8 0 C8 2.64 8 5.28 8 8 C5.36 8 2.72 8 0 8 C0 5.36 0 2.72 0 0 Z " fill="#000000" transform="translate(192,167)"/>
<path d="M0 0 C2.64 0 5.28 0 8 0 C8 2.64 8 5.28 8 8 C5.36 8 2.72 8 0 8 C0 5.36 0 2.72 0 0 Z " fill="#FFEDED" transform="translate(192,159)"/>
<path d="M0 0 C2.64 0 5.28 0 8 0 C8 2.64 8 5.28 8 8 C5.36 8 2.72 8 0 8 C0 5.36 0 2.72 0 0 Z " fill="#000000" transform="translate(484,142)"/>
<path d="M0 0 C2.64 0 5.28 0 8 0 C8 2.64 8 5.28 8 8 C5.36 8 2.72 8 0 8 C0 5.36 0 2.72 0 0 Z " fill="#000000" transform="translate(9,142)"/>
<path d="M0 0 C2.64 0 5.28 0 8 0 C8 2.64 8 5.28 8 8 C5.36 8 2.72 8 0 8 C0 5.36 0 2.72 0 0 Z " fill="#FFEDED" transform="translate(484,134)"/>
<path d="M0 0 C2.64 0 5.28 0 8 0 C8 2.64 8 5.28 8 8 C5.36 8 2.72 8 0 8 C0 5.36 0 2.72 0 0 Z " fill="#FFEDED" transform="translate(9,134)"/>
<path d="M0 0 C2.64 0 5.28 0 8 0 C8 2.64 8 5.28 8 8 C5.36 8 2.72 8 0 8 C0 5.36 0 2.72 0 0 Z " fill="#000000" transform="translate(484,9)"/>
<path d="M0 0 C2.64 0 5.28 0 8 0 C8 2.64 8 5.28 8 8 C5.36 8 2.72 8 0 8 C0 5.36 0 2.72 0 0 Z " fill="#000000" transform="translate(9,9)"/>
</svg>
