<?xml version="1.0" encoding="UTF-8"?>
<svg version="1.1" xmlns="http://www.w3.org/2000/svg" width="500" height="196">
<path d="M0 0 C153.45 0 306.9 0 465 0 C465 5.94 465 11.88 465 18 C470.61 18 476.22 18 482 18 C482 70.8 482 123.6 482 178 C476.39 178 470.78 178 465 178 C465 183.61 465 189.22 465 195 C311.55 195 158.1 195 0 195 C0 189.39 0 183.78 0 178 C-5.94 178 -11.88 178 -18 178 C-18 125.2 -18 72.4 -18 18 C-12.06 18 -6.12 18 0 18 C0 12.06 0 6.12 0 0 Z " fill="#B17446" transform="translate(18,0)"/>
<path d="M0 0 C153.45 0 306.9 0 465 0 C465 5.94 465 11.88 465 18 C470.61 18 476.22 18 482 18 C482 70.8 482 123.6 482 178 C476.39 178 470.78 178 465 178 C465 183.61 465 189.22 465 195 C311.55 195 158.1 195 0 195 C0 189.39 0 183.78 0 178 C-5.94 178 -11.88 178 -18 178 C-18 125.2 -18 72.4 -18 18 C-12.06 18 -6.12 18 0 18 C0 12.06 0 6.12 0 0 Z M0 18 C0 64.86 0 111.72 0 160 C5.94 160 11.88 160 18 160 C18 154.06 18 148.12 18 142 C23.94 142 29.88 142 36 142 C36 147.94 36 153.88 36 160 C165.69 160 295.38 160 429 160 C429 154.06 429 148.12 429 142 C434.94 142 440.88 142 447 142 C447 112.96 447 83.92 447 54 C441.06 54 435.12 54 429 54 C429 48.06 429 42.12 429 36 C434.94 36 440.88 36 447 36 C447 30.06 447 24.12 447 18 C299.49 18 151.98 18 0 18 Z " fill="#A15E3A" transform="translate(18,0)"/>
<path d="M0 0 C153.45 0 306.9 0 465 0 C465 5.94 465 11.88 465 18 C311.55 18 158.1 18 0 18 C0 12.06 0 6.12 0 0 Z " fill="#693C25" transform="translate(18,0)"/>
<path d="M0 0 C153.45 0 306.9 0 465 0 C465 5.61 465 11.22 465 17 C311.55 17 158.1 17 0 17 C0 11.39 0 5.78 0 0 Z " fill="#683C25" transform="translate(18,178)"/>
<path d="M0 0 C129.69 0 259.38 0 393 0 C393 5.61 393 11.22 393 17 C263.31 17 133.62 17 0 17 C0 11.39 0 5.78 0 0 Z " fill="#B5784A" transform="translate(54,54)"/>
<path d="M0 0 C5.94 0 11.88 0 18 0 C18 52.8 18 105.6 18 160 C12.06 160 6.12 160 0 160 C0 107.2 0 54.4 0 0 Z " fill="#693C25" transform="translate(0,18)"/>
<path d="M0 0 C5.61 0 11.22 0 17 0 C17 52.8 17 105.6 17 160 C11.39 160 5.78 160 0 160 C0 107.2 0 54.4 0 0 Z " fill="#693C25" transform="translate(483,18)"/>
<path d="M0 0 C5.94 0 11.88 0 18 0 C18 5.94 18 11.88 18 18 C12.06 18 6.12 18 0 18 C0 12.06 0 6.12 0 0 Z " fill="#653922" transform="translate(447,142)"/>
<path d="M0 0 C5.94 0 11.88 0 18 0 C18 5.94 18 11.88 18 18 C12.06 18 6.12 18 0 18 C0 12.06 0 6.12 0 0 Z " fill="#653922" transform="translate(36,142)"/>
<path d="M0 0 C5.94 0 11.88 0 18 0 C18 5.94 18 11.88 18 18 C12.06 18 6.12 18 0 18 C0 12.06 0 6.12 0 0 Z " fill="#653922" transform="translate(447,36)"/>
<path d="M0 0 C5.94 0 11.88 0 18 0 C18 5.94 18 11.88 18 18 C12.06 18 6.12 18 0 18 C0 12.06 0 6.12 0 0 Z " fill="#653922" transform="translate(36,36)"/>
</svg>
