<?xml version="1.0" encoding="UTF-8"?>
<svg version="1.1" xmlns="http://www.w3.org/2000/svg" width="500" height="196">
<path d="M0 0 C153.45 0 306.9 0 465 0 C465 5.94 465 11.88 465 18 C470.61 18 476.22 18 482 18 C482 70.8 482 123.6 482 178 C476.39 178 470.78 178 465 178 C465 183.61 465 189.22 465 195 C311.55 195 158.1 195 0 195 C0 189.39 0 183.78 0 178 C-5.94 178 -11.88 178 -18 178 C-18 125.2 -18 72.4 -18 18 C-12.06 18 -6.12 18 0 18 C0 12.06 0 6.12 0 0 Z " fill="#AE7244" transform="translate(18,0)"/>
<path d="M0 0 C153.45 0 306.9 0 465 0 C465 5.94 465 11.88 465 18 C470.61 18 476.22 18 482 18 C482 70.8 482 123.6 482 178 C476.39 178 470.78 178 465 178 C465 183.61 465 189.22 465 195 C311.55 195 158.1 195 0 195 C0 189.39 0 183.78 0 178 C29.7 178 59.4 178 90 178 C90 172.06 90 166.12 90 160 C201.87 160 313.74 160 429 160 C429 154.06 429 148.12 429 142 C434.94 142 440.88 142 447 142 C447 112.96 447 83.92 447 54 C441.06 54 435.12 54 429 54 C429 48.06 429 42.12 429 36 C434.94 36 440.88 36 447 36 C447 30.06 447 24.12 447 18 C299.49 18 151.98 18 0 18 C0 12.06 0 6.12 0 0 Z " fill="#A15E3A" transform="translate(18,0)"/>
<path d="M0 0 C147.51 0 295.02 0 447 0 C447 5.94 447 11.88 447 18 C441.06 18 435.12 18 429 18 C429 29.55 429 41.1 429 53 C299.31 53 169.62 53 36 53 C36 47.39 36 41.78 36 36 C30.06 36 24.12 36 18 36 C18 70.98 18 105.96 18 142 C12.06 142 6.12 142 0 142 C0 95.14 0 48.28 0 0 Z " fill="#B27547" transform="translate(18,18)"/>
<path d="M0 0 C129.69 0 259.38 0 393 0 C393 11.55 393 23.1 393 35 C263.31 35 133.62 35 0 35 C0 23.45 0 11.9 0 0 Z " fill="#AE7244" transform="translate(54,125)"/>
<path d="M0 0 C153.45 0 306.9 0 465 0 C465 5.94 465 11.88 465 18 C311.55 18 158.1 18 0 18 C0 12.06 0 6.12 0 0 Z " fill="#653922" transform="translate(18,0)"/>
<path d="M0 0 C5.61 0 11.22 0 17 0 C17 5.94 17 11.88 17 18 C135.14 18 253.28 18 375 18 C375 23.61 375 29.22 375 35 C221.55 35 68.1 35 -90 35 C-90 29.39 -90 23.78 -90 18 C-60.3 18 -30.6 18 0 18 C0 12.06 0 6.12 0 0 Z " fill="#653922" transform="translate(108,160)"/>
<path d="M0 0 C129.69 0 259.38 0 393 0 C393 5.94 393 11.88 393 18 C263.31 18 133.62 18 0 18 C0 12.06 0 6.12 0 0 Z " fill="#B5784A" transform="translate(54,89)"/>
<path d="M0 0 C129.69 0 259.38 0 393 0 C393 5.61 393 11.22 393 17 C263.31 17 133.62 17 0 17 C0 11.39 0 5.78 0 0 Z " fill="#B5784A" transform="translate(54,125)"/>
<path d="M0 0 C129.69 0 259.38 0 393 0 C393 5.61 393 11.22 393 17 C263.31 17 133.62 17 0 17 C0 11.39 0 5.78 0 0 Z " fill="#B5784A" transform="translate(54,54)"/>
<path d="M0 0 C5.94 0 11.88 0 18 0 C18 52.8 18 105.6 18 160 C12.06 160 6.12 160 0 160 C0 107.2 0 54.4 0 0 Z " fill="#653922" transform="translate(0,18)"/>
<path d="M0 0 C5.61 0 11.22 0 17 0 C17 52.8 17 105.6 17 160 C11.39 160 5.78 160 0 160 C0 107.2 0 54.4 0 0 Z " fill="#653922" transform="translate(483,18)"/>
<path d="M0 0 C5.94 0 11.88 0 18 0 C18 5.94 18 11.88 18 18 C35.82 18 53.64 18 72 18 C72 23.94 72 29.88 72 36 C42.3 36 12.6 36 -18 36 C-18 30.06 -18 24.12 -18 18 C-12.06 18 -6.12 18 0 18 C0 12.06 0 6.12 0 0 Z " fill="#A15E3A" transform="translate(36,142)"/>
<path d="M0 0 C11.88 0 23.76 0 36 0 C36 5.61 36 11.22 36 17 C24.12 17 12.24 17 0 17 C0 11.39 0 5.78 0 0 Z " fill="#4A2A1A" transform="translate(375,178)"/>
<path d="M0 0 C5.61 0 11.22 0 17 0 C17 11.55 17 23.1 17 35 C11.39 35 5.78 35 0 35 C0 23.45 0 11.9 0 0 Z " fill="#653922" transform="translate(108,160)"/>
<path d="M0 0 C5.94 0 11.88 0 18 0 C18 5.94 18 11.88 18 18 C12.06 18 6.12 18 0 18 C0 12.06 0 6.12 0 0 Z " fill="#653922" transform="translate(447,142)"/>
<path d="M0 0 C5.94 0 11.88 0 18 0 C18 5.94 18 11.88 18 18 C12.06 18 6.12 18 0 18 C0 12.06 0 6.12 0 0 Z " fill="#653922" transform="translate(36,142)"/>
<path d="M0 0 C5.94 0 11.88 0 18 0 C18 5.94 18 11.88 18 18 C12.06 18 6.12 18 0 18 C0 12.06 0 6.12 0 0 Z " fill="#653922" transform="translate(447,36)"/>
<path d="M0 0 C5.94 0 11.88 0 18 0 C18 5.94 18 11.88 18 18 C12.06 18 6.12 18 0 18 C0 12.06 0 6.12 0 0 Z " fill="#653922" transform="translate(36,36)"/>
<path d="M0 0 C5.61 0 11.22 0 17 0 C17 5.61 17 11.22 17 17 C11.39 17 5.78 17 0 17 C0 11.39 0 5.78 0 0 Z " fill="#4A2A1A" transform="translate(108,178)"/>
</svg>
